<svg width="16" height="17" viewBox="0 0 16 17" fill="currentColor" xmlns="http://www.w3.org/2000/svg">
<path d="M12.6827 4.31252C12.6777 4.35631 12.6517 4.36677 12.6131 4.36481C12.5315 4.36154 12.4524 4.3635 12.3701 4.36481C12.3568 4.36481 12.3441 4.37789 12.329 4.3805C12.3144 4.38377 12.2942 4.38769 12.2821 4.38377C12.2625 4.37723 12.2448 4.3622 12.2264 4.35108C12.2277 4.34716 12.2302 4.34389 12.2302 4.34063C12.1423 4.34063 12.0511 4.34063 11.9619 4.34063C11.841 4.34063 11.7208 4.33997 11.5999 4.34128C11.5866 4.34128 11.5727 4.35043 11.56 4.35501C11.5492 4.35697 11.5404 4.36285 11.5303 4.3635C11.4714 4.36416 11.4119 4.36547 11.3537 4.36285C11.3277 4.36154 11.3018 4.35043 11.2758 4.34455C11.2695 4.34455 11.2632 4.34586 11.2524 4.34651C11.2524 4.38834 11.2524 4.42887 11.2524 4.47398C11.2353 4.47528 11.2214 4.47659 11.2056 4.47659C10.9062 4.47659 10.6069 4.47724 10.3056 4.47659C10.2835 4.47659 10.2695 4.4864 10.2525 4.50078C10.224 4.52431 10.1866 4.53673 10.1461 4.55569C10.1594 4.61713 10.1126 4.6557 10.0645 4.69426C10.0398 4.71518 10.0189 4.74264 9.99804 4.76878C9.97273 4.80277 9.94361 4.83154 9.89488 4.82696C9.87589 5.04856 9.92273 5.25708 9.99045 5.46691C9.93728 5.4826 9.88792 5.50025 9.83855 5.51332C9.80248 5.52378 9.78413 5.53881 9.77653 5.57803C9.75818 5.68654 9.73223 5.79309 9.71451 5.90029C9.68856 6.05848 9.61325 6.17418 9.46388 6.23301C9.45249 6.23759 9.443 6.25001 9.43414 6.26178C9.38098 6.3363 9.32022 6.40101 9.23162 6.43042C9.17845 6.44807 9.12529 6.44415 9.07656 6.41735C9.04491 6.40036 9.01517 6.39578 8.98163 6.39774C8.88289 6.40297 8.79239 6.36963 8.70252 6.33237C8.50316 6.2487 8.31899 6.13039 8.13482 6.01796C8.1152 6.00619 8.09685 5.99638 8.08546 5.98854C8.0766 6.03495 8.07343 6.08202 8.06331 6.12581C8.05192 6.16765 8.03356 6.20948 8.01901 6.25132C8.05571 6.2657 8.09305 6.27812 8.12849 6.29642C8.22659 6.35264 8.27722 6.43892 8.27343 6.55658C8.26077 6.85727 8.24874 7.156 8.23862 7.45604C8.23609 7.5371 8.19938 7.60442 8.1671 7.67241C8.14115 7.72797 8.10761 7.78092 8.0747 7.8306C8.04116 7.87962 8.02597 7.8842 7.97217 7.86589C7.91458 7.84694 7.85825 7.82471 7.80256 7.80445C7.78294 7.84432 7.76459 7.88093 7.74813 7.91884C7.74433 7.92865 7.7437 7.93976 7.7456 7.95087C7.76585 8.04827 7.7861 8.14894 7.80825 8.24764C7.81268 8.25941 7.81965 8.27183 7.82851 8.28098C8.13229 8.60781 8.3595 8.98891 8.52721 9.40791C8.60632 9.60205 8.66708 9.80339 8.73607 10.0021C8.74366 10.0211 8.74746 10.042 8.75379 10.0583C8.75758 10.0616 8.76011 10.0649 8.76201 10.0649C8.84239 10.0557 8.84745 10.0583 8.85885 10.1413C8.86138 10.1577 8.86391 10.1721 8.86391 10.1891C8.86517 10.2459 8.86834 10.2969 8.90188 10.3492C8.9291 10.3963 8.94175 10.4584 8.94049 10.5152C8.93542 10.678 8.92783 10.844 8.90948 11.0081C8.88479 11.2304 8.84619 11.452 8.81771 11.6768C8.81391 11.7147 8.83163 11.7559 8.83796 11.7977C8.86264 11.9174 8.87783 12.0376 8.85631 12.1605C8.84745 12.2135 8.83037 12.2612 8.79682 12.3024C8.78796 12.3128 8.78353 12.3259 8.78227 12.339C8.76961 12.5501 8.75125 12.7626 8.77847 12.9757C8.78227 12.9966 8.78923 13.0214 8.80189 13.0391C8.91707 13.1803 9.03415 13.3195 9.14934 13.4581C9.18478 13.4993 9.22972 13.5097 9.27528 13.5202C9.38288 13.545 9.48034 13.5914 9.57211 13.6555C9.61198 13.6829 9.63223 13.7202 9.63033 13.7673C9.6278 13.8124 9.62527 13.8568 9.62147 13.8993C9.61894 13.93 9.60185 13.9496 9.57464 13.9542C9.50755 13.9666 9.43984 13.981 9.37528 13.9836C9.12466 13.9961 8.8772 13.9791 8.63101 13.9261C8.55949 13.9117 8.48924 13.881 8.41836 13.8614C8.39747 13.8536 8.37152 13.8555 8.34937 13.8581C8.25191 13.8647 8.15508 13.8777 8.05761 13.8797C8.01078 13.8797 7.96521 13.8536 7.92027 13.8372C7.89939 13.8294 7.89306 13.8104 7.89369 13.7888C7.90066 13.6601 7.92091 13.5326 7.95508 13.4097C7.95888 13.396 7.96205 13.3796 7.96394 13.3633C7.96901 13.2777 7.99559 13.2012 8.04306 13.1319C8.05128 13.1241 8.05635 13.1097 8.05508 13.0979C8.04179 12.8796 8.0304 12.6606 8.01837 12.441C8.01711 12.4233 8.01204 12.4122 7.99242 12.4044C7.96078 12.3939 7.94939 12.3658 7.95255 12.3357C7.96141 12.2808 7.94559 12.2331 7.92597 12.1841C7.87407 12.0514 7.85319 11.9089 7.8399 11.7664C7.82471 11.5866 7.81965 11.4042 7.80699 11.2225C7.80256 11.1473 7.82977 11.0885 7.888 11.0408C7.89686 11.0329 7.90445 11.0179 7.90572 11.0068C7.91648 10.8957 7.92471 10.7846 7.93357 10.6747C7.93483 10.6584 7.92977 10.6381 7.92091 10.6264C7.89939 10.5878 7.87534 10.5505 7.84813 10.5146C7.8418 10.5054 7.82661 10.5002 7.81395 10.5002C7.7418 10.5002 7.66839 10.5041 7.59371 10.5015C7.5532 10.5002 7.51776 10.4767 7.49308 10.4375C7.31081 10.157 7.12853 9.87987 6.9469 9.60009C6.93044 9.57329 6.91335 9.56153 6.88108 9.56414C6.74627 9.57264 6.65007 9.5125 6.59438 9.38242C6.58109 9.3517 6.56653 9.32097 6.55324 9.2896C6.54438 9.2713 6.53615 9.24842 6.52603 9.22162C6.51653 9.25822 6.51147 9.28829 6.50451 9.31705C6.47603 9.44321 6.40958 9.54257 6.31021 9.62167C6.29692 9.63082 6.2849 9.64781 6.2792 9.66285C6.20452 9.86745 6.12794 10.0701 6.05769 10.276C6.03681 10.3381 6.02731 10.4054 6.02162 10.4721C6.01086 10.6035 5.96655 10.7042 5.83808 10.7473C5.82669 10.7519 5.81909 10.7643 5.8134 10.7761C5.79821 10.814 5.78492 10.8525 5.77036 10.8918C5.73429 10.9787 5.67669 11.0414 5.59885 11.0905C5.58303 11.0983 5.56784 11.1199 5.56087 11.1375C5.53619 11.2186 5.51594 11.3016 5.45961 11.3689C5.45582 11.3748 5.45392 11.3879 5.45645 11.3957C5.51278 11.552 5.4786 11.701 5.42037 11.8468C5.38557 11.935 5.34759 12.0226 5.30139 12.1043C5.24633 12.1991 5.20772 12.3017 5.17988 12.4083C5.16152 12.4815 5.13431 12.5534 5.10583 12.6214C5.07672 12.692 5.02672 12.7397 4.94697 12.741C4.93938 12.7423 4.92736 12.7521 4.92482 12.758C4.87483 12.8842 4.82609 13.009 4.77799 13.1345C4.74319 13.2241 4.73939 13.3182 4.74002 13.4123C4.74129 13.5221 4.74825 13.6293 4.75395 13.7379C4.75458 13.7529 4.76091 13.7712 4.76913 13.7849C4.84192 13.8869 4.83938 13.9993 4.80394 14.1163C4.80015 14.1255 4.78496 14.1372 4.7742 14.1379C4.69509 14.1477 4.61534 14.1549 4.53433 14.1641C4.52168 14.1654 4.50838 14.1673 4.49573 14.1673C4.4375 14.1673 4.37738 14.1673 4.31915 14.1673C4.297 14.1654 4.27801 14.1641 4.25586 14.1608C4.18118 14.1503 4.10524 14.1425 4.03182 14.1294C3.99828 14.1235 3.97866 14.1026 3.96917 14.0634C3.92613 13.8889 3.94385 13.7169 3.98752 13.5463C4.0622 13.2522 4.13562 12.96 4.20966 12.6658C4.21156 12.6567 4.2065 12.6397 4.1989 12.6331C4.1546 12.5972 4.12929 12.5488 4.12929 12.4952C4.12929 12.4194 4.13372 12.3436 4.14637 12.2677C4.16852 12.1448 4.23498 12.0396 4.30396 11.9396C4.35776 11.8605 4.38307 11.7794 4.37231 11.682C4.36472 11.6213 4.36788 11.5559 4.39636 11.4964C4.44256 11.397 4.48687 11.2951 4.53686 11.1977C4.59762 11.0833 4.65964 10.9715 4.75268 10.8826C4.75837 10.8754 4.76281 10.8669 4.7647 10.8578C4.77736 10.7898 4.79888 10.729 4.84065 10.678C4.9147 10.593 4.93242 10.4924 4.92356 10.3825C4.92103 10.361 4.9185 10.3387 4.9166 10.3172C4.91343 10.2695 4.90457 10.2211 4.90774 10.174C4.92862 9.84784 4.97735 9.52557 5.0476 9.20593C5.05203 9.1837 5.05014 9.17063 5.03431 9.15559C4.98495 9.10853 4.9609 9.05035 4.98558 8.98106C4.99381 8.95949 4.99191 8.94576 4.97862 8.93008C4.95204 8.8902 4.93052 8.85033 4.95647 8.80065C4.97419 8.76862 4.99318 8.73855 5.01026 8.70521C4.99191 8.69149 4.97166 8.67776 4.95584 8.66142C4.94697 8.64965 4.93748 8.63592 4.93748 8.62481C4.93748 8.5431 4.94761 8.46335 4.98558 8.39014C5.02355 8.31889 5.06596 8.30516 5.12861 8.33719C5.12228 8.19339 5.11532 8.04565 5.10963 7.89792C5.10899 7.86851 5.1071 7.83779 5.0995 7.81033C5.04571 7.61684 5.04254 7.41747 5.04507 7.21941C5.04571 7.19784 5.05773 7.17169 5.07229 7.15535C5.14064 7.07626 5.23177 7.03638 5.3343 7.02527C5.29696 7.01808 5.26025 7.01285 5.22291 7.00566C5.13368 6.98801 5.04571 6.96774 4.95647 6.94813C4.92989 6.94356 4.91786 6.92526 4.91976 6.89649C4.92229 6.85531 4.92103 6.81282 4.92609 6.7723C4.94508 6.64548 4.97039 6.51736 4.98368 6.38924C5.00267 6.20491 5.0128 6.01861 5.02609 5.83231C5.03241 5.76106 5.06596 5.72315 5.13368 5.71334C5.16912 5.70811 5.20456 5.71007 5.24 5.71138C5.31468 5.71465 5.38936 5.71792 5.45835 5.68393C5.47164 5.67739 5.48556 5.66497 5.48683 5.6519C5.49252 5.6264 5.49252 5.59895 5.48873 5.57215C5.47923 5.45057 5.46214 5.33094 5.45708 5.20805C5.44822 4.95508 5.4767 4.70407 5.56847 4.46613C5.66783 4.20205 5.82859 3.9896 6.07668 3.85625C6.19882 3.78958 6.32857 3.7497 6.4678 3.76931C6.49818 3.77324 6.52856 3.78958 6.55261 3.80853C6.58109 3.8288 6.60514 3.85691 6.62855 3.87979C6.65007 3.85952 6.66843 3.8386 6.69121 3.81965C6.70703 3.80657 6.70766 3.79481 6.7007 3.77716C6.64374 3.62747 6.61969 3.47255 6.62855 3.31109C6.64944 2.89797 6.95576 2.53648 7.35194 2.46785C7.59877 2.42536 7.81838 2.4953 8.01584 2.65218C8.03926 2.67114 8.06774 2.68225 8.09495 2.69598C8.14052 2.72082 8.18988 2.73912 8.23102 2.76919C8.27153 2.79665 8.27532 2.83194 8.26014 2.87639C8.2557 2.88881 8.25697 2.90516 8.26267 2.91758C8.30887 3.02151 8.33608 3.13133 8.34557 3.24441C8.3557 3.35292 8.35697 3.46143 8.32722 3.56798C8.31393 3.61374 8.28418 3.64119 8.23798 3.65296C8.22216 3.65754 8.20824 3.66342 8.19242 3.6693C8.15761 3.68303 8.12343 3.69806 8.08862 3.71048C8.07723 3.71506 8.06521 3.71637 8.05255 3.71898C8.05381 3.785 8.03926 3.84579 8.069 3.90528C8.08989 3.94646 8.09875 3.9896 8.05888 4.03405C8.11204 4.03013 8.15508 4.02882 8.19875 4.02163C8.27406 4.00987 8.34811 3.99549 8.42279 3.98176C8.43038 3.9811 8.43418 3.97653 8.43798 3.97391C8.45063 3.97065 8.46266 3.9628 8.47658 3.9628C8.52025 3.96084 8.56455 3.96215 8.60632 3.96215C8.60886 3.92424 8.61012 3.89351 8.61518 3.86148C8.61645 3.8471 8.62531 3.83337 8.62847 3.81899C8.63734 3.76801 8.6424 3.71702 8.65126 3.66603C8.66582 3.66603 8.68164 3.66603 8.69683 3.66603C8.70062 3.69872 8.70316 3.72879 8.70569 3.75886C8.71012 3.79154 8.71138 3.82357 8.71771 3.85429C8.72277 3.86737 8.7386 3.88044 8.75252 3.8824C8.7848 3.8909 8.81644 3.89221 8.84745 3.89547C8.84872 3.92227 8.84999 3.94581 8.85125 3.97261C9.65502 3.97261 10.4506 3.97261 11.2531 3.97261C11.2531 4.01379 11.2531 4.05301 11.2531 4.09354C11.2815 4.09354 11.305 4.09354 11.3322 4.09354C11.3322 3.94188 11.3322 3.79285 11.3322 3.64381C11.3619 3.64381 11.3879 3.64381 11.4151 3.64381C11.4151 3.75167 11.4151 3.8556 11.4163 3.96019C11.4163 3.98307 11.4011 4.01314 11.4385 4.02229C11.441 4.02229 11.441 4.03601 11.4423 4.04255C11.4436 4.05497 11.4436 4.06608 11.4448 4.0785C11.4594 4.0785 11.4733 4.0785 11.4853 4.0785C11.4879 4.06608 11.4904 4.05628 11.4954 4.04582C11.5176 4.04582 11.5398 4.04582 11.5613 4.04582C11.5663 4.0687 11.5701 4.08961 11.5739 4.1138C11.5518 4.12361 11.5454 4.15237 11.5606 4.2197C11.5619 4.22035 11.5644 4.22166 11.567 4.22166C11.7821 4.22296 11.9973 4.22362 12.2112 4.22427C12.2195 4.22427 12.2245 4.21839 12.2309 4.21316C12.2543 4.19878 12.2764 4.17982 12.3011 4.1674C12.3074 4.16413 12.3207 4.17525 12.3321 4.17917C12.3448 4.18505 12.3581 4.19551 12.3707 4.19551C12.4511 4.19682 12.5321 4.19813 12.6138 4.1942C12.6536 4.19224 12.6796 4.20205 12.6859 4.24846C12.6827 4.26807 12.6827 4.29029 12.6827 4.31252ZM9.35376 4.90409C9.24364 4.90409 9.14111 4.91063 9.03859 4.90083C8.98922 4.89625 8.97276 4.91913 8.95568 4.95508C8.94935 4.96619 8.94428 4.97861 8.93985 4.99038C8.94239 4.98907 8.94682 4.98776 8.94935 4.98646C8.99998 5.07666 9.05061 5.16622 9.09808 5.2525C9.18098 5.13876 9.26453 5.02502 9.35376 4.90409ZM9.07086 4.84461C9.0696 4.84919 9.06833 4.85441 9.06833 4.85834C9.08289 4.86226 9.09808 4.8701 9.11137 4.8701C9.18541 4.87141 9.26073 4.8701 9.33541 4.87076C9.37212 4.87076 9.38857 4.84592 9.393 4.81846C9.39933 4.77859 9.39553 4.73741 9.38984 4.69753C9.38731 4.68381 9.37212 4.66485 9.35756 4.66158C9.30187 4.64916 9.24617 4.65047 9.19681 4.6825C9.18921 4.68838 9.18098 4.69688 9.18098 4.70342C9.18415 4.7544 9.19428 4.8067 9.14997 4.84461C9.12656 4.84461 9.09808 4.84461 9.07086 4.84461ZM9.11263 4.68184C9.1063 4.66942 9.10061 4.65374 9.09934 4.65374C9.08415 4.65897 9.06706 4.66616 9.05188 4.67269C9.05314 4.67596 9.05314 4.67858 9.05567 4.68184C9.07086 4.68184 9.08668 4.68184 9.11263 4.68184Z" />
<path d="M8.00033 16.5C3.58911 16.5 0 12.9116 0 8.49967C0 4.08911 3.58911 0.5 8.00033 0.5C12.4109 0.5 16 4.08845 16 8.49967C16 12.9116 12.4116 16.5 8.00033 16.5ZM8.00033 1.15994C3.95237 1.15994 0.659277 4.45303 0.659277 8.50033C0.659277 12.5483 3.95237 15.8414 8.00033 15.8414C12.0483 15.8414 15.3407 12.5483 15.3407 8.50033C15.3407 4.45237 12.0483 1.15994 8.00033 1.15994Z" />
</svg>
