<svg width="16" height="16" viewBox="0 0 16 16" fill="none" xmlns="http://www.w3.org/2000/svg">
<path d="M12.797 0C12.7429 0.16136 12.6859 0.316393 12.6318 0.47459C12.2817 1.48072 11.9343 2.48369 11.587 3.48982C11.5671 3.54677 11.5414 3.55626 11.4959 3.55626C10.3571 3.55626 9.22117 3.55626 8.08238 3.55626C8.05676 3.55626 8.03114 3.55626 8.00267 3.55626C8.00267 4.44532 8.00267 5.32806 8.00267 6.22029C9.06458 6.22029 10.1265 6.22029 11.1941 6.22029C11.1941 7.40993 11.1941 8.59007 11.1941 9.77655C10.1294 9.77655 9.06743 9.77655 7.99697 9.77655C7.99697 9.81135 7.99697 9.83666 7.99697 9.86514C7.99697 11.5832 7.99697 13.3012 7.99982 15.0192C7.99982 15.092 7.98274 15.1204 7.91726 15.1362C6.90089 15.4147 5.88737 15.6994 4.871 15.981C4.85107 15.9873 4.8283 15.9937 4.80267 16C4.80267 10.6656 4.80267 5.33755 4.80267 0.00316394C7.46459 1.20223e-08 10.1265 0 12.797 0Z" fill="#91CDD7"/>
<path d="M15.9972 15.1079C15.8235 15.0668 15.6584 15.032 15.4961 14.994C14.7787 14.8264 14.0641 14.6618 13.3467 14.4941C12.578 14.317 11.8121 14.1366 11.0435 13.9594C10.5794 13.8519 10.1125 13.7443 9.64844 13.6399C9.60859 13.6304 9.5972 13.6146 9.5972 13.5703C9.5972 13.0039 9.5972 12.4376 9.5972 11.8712C9.5972 11.8554 9.60005 11.8396 9.60005 11.8175C11.1289 12.1781 12.6548 12.5388 14.1894 12.9027C14.1837 12.8394 14.1808 12.7793 14.1751 12.7223C14.1153 12.0769 14.0584 11.4315 13.9986 10.786C13.9445 10.1849 13.8933 9.58372 13.8392 8.98257C13.7765 8.28967 13.7139 7.59993 13.6513 6.90703C13.6285 6.65708 13.6 6.40713 13.5886 6.15718C13.583 6.06226 13.6114 5.96418 13.6285 5.86926C13.7652 5.10676 13.9047 4.34108 14.0413 3.57858C14.0442 3.56276 14.0442 3.5501 14.047 3.52795C13.7879 3.54694 13.5346 3.56592 13.2698 3.58491C13.2812 3.54694 13.2897 3.51846 13.3011 3.49315C13.489 2.93946 13.6769 2.38578 13.8648 1.83209C13.879 1.78779 13.899 1.77197 13.9417 1.77197C14.605 1.77514 15.2684 1.77197 15.9345 1.77197C15.9545 1.77197 15.9744 1.77197 16 1.77197C15.9744 1.91435 15.9516 2.04723 15.9289 2.18012C15.7353 3.26218 15.5388 4.34741 15.3452 5.42948C15.2997 5.67943 15.2513 5.92938 15.2114 6.17933C15.2 6.24577 15.2114 6.31538 15.2171 6.38498C15.2627 6.91652 15.3111 7.4449 15.3595 7.97644C15.4022 8.44154 15.4449 8.9098 15.4876 9.3749C15.5303 9.84 15.5701 10.3083 15.61 10.7734C15.647 11.1942 15.6869 11.6118 15.7239 12.0326C15.7609 12.4566 15.7979 12.8805 15.8377 13.3045C15.8719 13.681 15.9061 14.0544 15.9402 14.4309C15.9573 14.6492 15.9772 14.8738 15.9972 15.1079Z" fill="#91CDD7"/>
<path d="M0 15.1046C0.0113849 14.959 0.0256159 14.823 0.0370008 14.6838C0.0626167 14.3958 0.0882326 14.1048 0.113849 13.8168C0.139464 13.5289 0.16508 13.2378 0.193543 12.9499C0.219158 12.662 0.244774 12.3772 0.27039 12.0893C0.296006 11.7982 0.321622 11.5072 0.350084 11.2161C0.378546 10.887 0.409855 10.558 0.438317 10.2289C0.469625 9.89356 0.498087 9.55818 0.529396 9.22281C0.560704 8.88743 0.589166 8.55205 0.620475 8.21668C0.651783 7.88446 0.680245 7.54909 0.711553 7.21687C0.740016 6.89415 0.777016 6.57143 0.79694 6.24871C0.802632 6.14747 0.768478 6.04306 0.7514 5.94181C0.500934 4.56866 0.256159 3.20501 0.00853864 1.84135C0.00569243 1.82237 0.00284621 1.80339 0.00284621 1.77808C1.06733 1.77808 2.12612 1.77808 3.19345 1.77808C3.19345 2.36657 3.19345 2.95506 3.19345 3.55304C2.78075 3.55304 2.3709 3.55304 1.9525 3.55304C1.98096 3.72073 2.00943 3.87893 2.03789 4.03396C2.16028 4.7142 2.28266 5.39445 2.40505 6.0747C2.41359 6.12215 2.41074 6.17594 2.4079 6.22656C2.3709 6.6442 2.33105 7.06184 2.29405 7.47948C2.25989 7.86232 2.22574 8.24515 2.19158 8.62799C2.15458 9.04879 2.11474 9.47276 2.07774 9.89356C2.04358 10.2701 2.01227 10.6497 1.97812 11.0262C1.94396 11.4059 1.90981 11.7856 1.87565 12.1653C1.86427 12.2792 1.85573 12.3931 1.84435 12.5165C2.29974 12.3424 2.74944 12.1716 3.20199 11.9976C3.20199 12.0261 3.20199 12.0482 3.20199 12.0703C3.20199 12.6493 3.20199 13.2315 3.20199 13.8105C3.20199 13.8611 3.18776 13.8833 3.14507 13.8991C2.11189 14.2946 1.08156 14.6932 0.0483856 15.0919C0.0313083 15.0951 0.0199235 15.0982 0 15.1046Z" fill="#91CDD7"/>
</svg>
