<svg width="20" height="21" viewBox="0 0 20 21" fill="none" xmlns="http://www.w3.org/2000/svg">
<g clip-path="url(#clip0_659_253824)">
<path d="M5.53088 1.18695C5.09928 0.762188 4.50725 0.5 3.85381 0.5C2.53311 0.5 1.46252 1.57063 1.46252 2.89129C1.46252 4.21195 2.53315 5.28258 3.85381 5.28258H6.95651V3.84367C6.95651 3.47129 7.02405 3.11445 7.14698 2.78441L5.53088 1.18695Z" fill="#91CDD7"/>
<path d="M16.1462 0.5C15.4927 0.5 14.9007 0.762188 14.469 1.18695L12.853 2.78434C12.9759 3.11445 13.0434 3.47129 13.0434 3.84363V5.28258H16.1461C17.4668 5.28258 18.5374 4.21195 18.5374 2.89129C18.5374 1.57063 17.4669 0.5 16.1462 0.5Z" fill="#91CDD7"/>
<path d="M10 2.10449C9.03954 2.10449 8.26086 2.88312 8.26086 3.84363V5.52363H11.7391V3.84363C11.7391 2.88312 10.9605 2.10449 10 2.10449Z" fill="#91CDD7"/>
<path d="M13.0435 11.3696V16.0672L10 13.7846L6.95654 16.0672V11.3696H2.17392V20.5001H17.8261V11.3696H13.0435Z" fill="#91CDD7"/>
<path d="M19.1304 6.58691H13.0435V10.0652H19.1304V6.58691Z" fill="#91CDD7"/>
<path d="M6.95652 6.58691H0.869568V10.0652H6.95652V6.58691Z" fill="#91CDD7"/>
<path d="M8.26086 6.58691V13.4584L10 12.1541L11.7391 13.4584V6.58691H8.26086Z" fill="#91CDD7"/>
</g>
<defs>
<clipPath id="clip0_659_253824">
<rect width="20" height="20" fill="white" transform="translate(0 0.5)"/>
</clipPath>
</defs>
</svg>
