<svg width="16" height="17" viewBox="0 0 16 17" fill="none" xmlns="http://www.w3.org/2000/svg">
<path fill-rule="evenodd" clip-rule="evenodd" d="M7.99153 0.5C12.4506 0.547165 15.9948 4.05046 16 8.4964C16.0052 12.943 12.4604 16.4974 8.00912 16.5C3.56309 16.5026 0.0045671 12.9666 5.72438e-06 8.51408C-0.00520727 4.05767 3.55071 0.554371 7.99153 0.5ZM8.05604 14.5669C8.15118 14.4143 8.22742 14.3023 8.29453 14.185C8.60406 13.6524 8.91684 13.1238 9.21528 12.5873C9.36972 12.3095 9.56716 12.1045 9.85778 11.9532C10.4599 11.6394 10.9421 11.1795 11.2874 10.5913C11.4816 10.2572 11.7455 9.99584 12.0525 9.77378C12.4669 9.47048 12.8872 9.17767 13.3023 8.87568C13.5356 8.70733 13.761 8.52915 14.0262 8.32739C13.877 8.23437 13.7695 8.15773 13.6541 8.0955C13.157 7.82888 12.6663 7.54917 12.1574 7.30876C11.7403 7.1129 11.4145 6.83777 11.1649 6.45193C10.8528 5.97177 10.4416 5.58332 9.93467 5.31408C9.52415 5.09595 9.2244 4.79003 9.02696 4.37406C8.93834 4.18933 8.83343 4.01247 8.73243 3.83429C8.47894 3.38098 8.22481 2.92899 7.94722 2.43769C7.48131 3.22573 7.04081 3.95613 6.61595 4.69636C6.44197 4.999 6.23475 5.24661 5.92979 5.432C5.42478 5.73791 5.02208 6.16108 4.74057 6.68121C4.5705 6.99498 4.33331 7.2164 4.02314 7.38606C3.33437 7.76272 2.65538 8.1538 1.94185 8.55666C2.71402 9.03028 3.45362 9.48948 4.20233 9.93492C4.40108 10.0535 4.54248 10.1943 4.65195 10.4026C5.04684 11.1514 5.64112 11.7062 6.40548 12.0685C6.66678 12.1903 6.84206 12.3652 6.97695 12.6214C7.3171 13.2659 7.68266 13.8961 8.05604 14.5669Z" />
<path fill-rule="evenodd" clip-rule="evenodd" d="M10.8227 8.60209C10.8937 9.99411 9.67905 11.3789 8.08648 11.3894C6.72915 11.3992 5.29167 10.3236 5.30144 8.58571C5.30926 6.91988 6.70178 5.81347 8.07866 5.82133C9.6973 5.83116 10.8898 7.22907 10.8227 8.60209ZM6.81907 9.93056C6.92464 10.1939 7.11556 10.2758 7.30128 10.3282C8.4527 10.6577 9.56046 10.1232 9.90126 8.91718C10.1033 8.20708 9.90582 7.63652 9.39234 7.15308C9.24572 7.01552 9.06262 6.91595 8.89124 6.80328C8.35886 6.45085 7.22243 6.56549 6.66138 7.36991C6.43983 7.685 6.36098 8.35906 6.78258 8.79533C7.12143 9.14448 7.80107 9.26043 8.20182 9.02985C8.44162 8.88966 8.51395 8.72393 8.46182 8.4226C8.4136 8.14682 8.32759 8.06624 7.96007 7.99288C7.96984 8.0669 7.98418 8.12848 7.98418 8.18874C7.98679 8.36889 7.95095 8.53462 7.7535 8.59685C7.59451 8.64598 7.34363 8.55951 7.26544 8.39443C7.20223 8.26604 7.16053 8.09834 7.18529 7.96274C7.30584 7.31161 8.11841 7.0522 8.6938 7.45441C9.29003 7.86972 9.37866 9.0043 8.87886 9.46481C8.39535 9.9096 7.84734 10.1101 7.19571 10.0131C7.08494 9.99673 6.97416 9.96528 6.81907 9.93056Z" />
</svg>
