<svg width="16" height="17" viewBox="0 0 16 17" fill="none" xmlns="http://www.w3.org/2000/svg">
<path fill-rule="evenodd" clip-rule="evenodd" d="M7.96831 16.4994C5.49104 16.4994 3.01312 16.5007 0.534535 16.4994C0.00773733 16.4994 0.000493873 16.4928 0.000493873 15.9858C-0.000164624 10.9962 -0.000164624 6.00655 0.000493873 1.0176C0.000493873 0.509219 0.00971284 0.500659 0.533218 0.5C5.51146 0.5 10.4897 0.5 15.4686 0.5C15.9947 0.5 16 0.505268 16 1.01562C16 6.00523 16 10.9955 16 15.9845C16 16.4974 15.9987 16.4994 15.4699 16.4994C12.9689 16.5007 10.4686 16.4994 7.96831 16.4994ZM8.00453 15.9028C10.2915 15.9028 12.5811 15.9028 14.8687 15.9015C15.3678 15.9015 15.4014 15.8679 15.4014 15.3694C15.4027 10.7927 15.4027 6.21596 15.4014 1.63924C15.4014 1.12559 15.3731 1.09794 14.8443 1.09794C10.2796 1.09728 5.71362 1.09728 1.14825 1.09794C0.626066 1.0986 0.599068 1.12559 0.599068 1.64648C0.598409 6.21201 0.598409 10.7775 0.599068 15.3437C0.599068 15.8784 0.622774 15.9015 1.17328 15.9028C3.4497 15.9028 5.72678 15.9028 8.00453 15.9028Z" fill="#425661"/>
<path fill-rule="evenodd" clip-rule="evenodd" d="M2.59363 15.133C2.85373 14.8333 3.06379 14.5752 3.29098 14.3335C3.65381 13.9483 3.82041 13.5018 3.81843 12.9691C3.81119 9.91024 3.80658 6.85207 3.81975 3.79324C3.82304 2.91939 3.4826 2.24177 2.80303 1.71693C2.75957 1.68269 2.70689 1.66227 2.70228 1.57996C4.30572 1.57996 5.9085 1.57996 7.50075 1.57996C7.22155 1.96651 6.92259 2.31157 6.70858 2.70273C6.57095 2.95495 6.49917 3.27433 6.49786 3.56474C6.48271 6.36674 6.49259 9.1694 6.48271 11.9708C6.48205 12.2901 6.58939 12.4554 6.89691 12.5522C9.12724 13.2542 11.1014 12.8288 12.8155 11.2312C12.8873 11.166 12.961 11.1028 13.1013 10.977C12.9715 11.4433 12.8649 11.8232 12.7588 12.2039C12.5159 13.0856 12.2689 13.9674 12.0319 14.8511C11.9687 15.0856 11.8297 15.1731 11.5959 15.1731C8.68275 15.1698 5.7689 15.1705 2.85571 15.1698C2.79184 15.1692 2.7273 15.1514 2.59363 15.133Z" fill="#425661"/>
</svg>
