<svg width="16" height="17" viewBox="0 0 16 17" fill="none" xmlns="http://www.w3.org/2000/svg">
<path fill-rule="evenodd" clip-rule="evenodd" d="M2.15784 3.039C2.68631 3.56862 3.21084 4.09365 3.74127 4.62525C2.88654 5.582 2.38499 6.70762 2.27142 7.99818C2.19067 8.92207 2.32393 9.8164 2.67646 10.6765C2.83665 11.0669 3.03293 11.4362 3.28305 11.7877C3.31128 11.7634 3.33163 11.7463 3.35001 11.7286C4.22313 10.8559 5.09428 9.9833 5.9674 9.11066C6.00482 9.07321 6.02583 9.02984 6.04289 8.98253C6.2254 8.47853 6.4079 7.97453 6.59106 7.47118C6.76305 6.99807 6.93505 6.52495 7.10836 6.05117C7.30202 5.51826 7.49634 4.98403 7.69 4.45112C7.70313 4.41432 7.71626 4.37818 7.74449 4.34401C7.74646 4.35978 7.7504 4.37687 7.75171 4.39395C7.75237 4.41498 7.75171 4.43601 7.75171 4.45703C7.75171 6.32322 7.75171 8.19006 7.75303 10.0562C7.75303 10.1344 7.73071 10.1896 7.6749 10.2448C6.71119 11.2075 5.74879 12.1715 4.78639 13.1328C4.76341 13.1558 4.73453 13.1716 4.69842 13.1972C4.73847 13.232 4.75816 13.2511 4.78048 13.2662C5.17765 13.5343 5.60174 13.7498 6.05209 13.9128C6.54838 14.0922 7.06044 14.2013 7.58694 14.2361C8.32285 14.286 9.04367 14.2052 9.74807 13.9805C10.2634 13.8162 10.7459 13.5816 11.1969 13.2813C11.2251 13.2636 11.2508 13.2412 11.2869 13.2143C11.2599 13.1847 11.2396 13.1591 11.2153 13.1361C10.5345 12.4547 9.85639 11.7746 9.17562 11.0945C8.88742 10.806 8.59988 10.5156 8.31038 10.2297C8.26508 10.1863 8.24604 10.1397 8.24604 10.0746C8.24735 8.19071 8.24735 6.30547 8.24735 4.42089C8.24735 4.39461 8.24735 4.36898 8.24735 4.34335C8.25261 4.34204 8.25786 4.34073 8.26311 4.33875C8.2723 4.35584 8.28346 4.37095 8.29003 4.38869C8.49616 4.95775 8.7023 5.5268 8.90909 6.09586C9.07583 6.55649 9.2452 7.01712 9.41195 7.47775C9.59511 7.97913 9.77761 8.47984 9.95814 8.98319C9.97718 9.03838 10.0067 9.08438 10.0494 9.12841C10.9146 9.99184 11.7805 10.8586 12.6431 11.7233C12.6635 11.7437 12.6852 11.7647 12.7062 11.7825C12.9202 11.6031 13.3948 10.5938 13.5497 10.0162C13.7217 9.37811 13.7795 8.73151 13.7355 8.07506C13.6896 7.41533 13.5301 6.78056 13.2635 6.17471C12.9983 5.57214 12.6366 5.032 12.1902 4.55231C12.2237 4.49252 13.681 3.02585 13.7736 2.96014C14.0493 3.23876 14.2955 3.54431 14.524 3.86564C15.1726 4.78099 15.6111 5.78767 15.8356 6.88767C16.0614 8.00212 16.0562 9.11723 15.81 10.2271C15.0406 13.6986 12.1239 16.1489 8.77845 16.463C5.07262 16.8126 1.82107 14.6422 0.561941 11.4427C-0.67618 8.29651 0.254052 5.00506 2.15784 3.039Z" fill="#425661"/>
<path fill-rule="evenodd" clip-rule="evenodd" d="M2.55127 2.64813C3.18149 2.05871 3.88589 1.58559 4.66645 1.22681C5.81726 0.697839 7.02846 0.460624 8.29219 0.505307C9.48304 0.547362 10.6115 0.844374 11.6718 1.39372C12.2908 1.71504 12.8593 2.1093 13.3733 2.58176C13.3399 2.64287 11.8884 4.10297 11.8011 4.16342C10.6929 3.22244 9.41477 2.72764 7.95213 2.73947C6.48884 2.75064 5.21789 3.26647 4.12551 4.22584C4.05067 4.17919 2.59985 2.7283 2.55127 2.64813Z" fill="#425661"/>
</svg>
