<svg width="16" height="16" viewBox="0 0 16 16" fill="none" xmlns="http://www.w3.org/2000/svg">
<path d="M0.350436 0.420154C0.933603 0.42247 3.92944 0.426639 4.51261 0.425712C4.69916 0.425249 4.72957 0.406257 4.72888 0.286742C4.72888 0.0551244 4.78553 0.00463177 4.88296 0.00463177L5.59603 0.00463181C5.72731 0.00463182 5.75633 0.181588 5.74665 0.304808C5.73974 0.394212 5.81022 0.427565 5.9339 0.426639C5.98849 0.426639 6.04377 0.427565 6.09973 0.427565L9.93385 0.427566C9.97047 0.427566 10.0078 0.428492 10.0451 0.427566C10.2669 0.42247 10.2911 0.411352 10.2925 0.269603C10.2952 0.069485 10.3083 -2.9543e-07 10.4161 -2.89835e-07C10.7499 -2.72512e-07 10.8224 0.00463208 11.1568 0.0046321C11.2819 -2.44895e-07 11.2674 0.170007 11.2702 0.287205C11.2729 0.40672 11.3006 0.425713 11.4871 0.426176C12.0703 0.427102 15.4173 0.422934 15.9998 0.420617L15.9998 2.23345L14.8521 2.23345L14.8521 1.58525C14.8521 1.3629 14.8507 1.3629 14.5087 1.36197L11.7172 1.36197L1.86777 1.36197C1.46149 1.36197 1.49673 1.36382 1.49673 1.62231L1.49704 2.23345L0.350436 2.23345L0.350436 0.420154Z" fill="#91CDD7"/>
<path d="M16 15.5799C15.4168 15.5776 12.421 15.5734 11.8378 15.5743C11.6513 15.5748 11.6209 15.5938 11.6216 15.7133C11.6216 15.9449 11.5649 15.9954 11.4675 15.9954L10.7544 15.9954C10.6231 15.9954 10.5941 15.8184 10.6038 15.6952C10.6107 15.6058 10.5402 15.5725 10.4165 15.5734C10.3619 15.5734 10.3067 15.5725 10.2507 15.5725L6.41658 15.5725C6.37996 15.5725 6.34265 15.5715 6.30534 15.5725C6.08354 15.5776 6.05936 15.5887 6.05798 15.7304C6.05521 15.9305 6.04208 16 5.9343 16C5.60056 16 5.52801 15.9954 5.19359 15.9954C5.06853 16 5.08304 15.83 5.08027 15.7128C5.07751 15.5933 5.04987 15.5743 4.86331 15.5739C4.28015 15.5729 0.933154 15.5771 0.350677 15.5794L0.350678 13.7667L1.49836 13.7667L1.49836 14.4149C1.49836 14.6372 1.49974 14.6372 1.84176 14.6381L4.63322 14.6381L14.4827 14.6381C14.8889 14.6381 14.8537 14.6363 14.8537 14.3778L14.8534 13.7667L16 13.7667L16 15.5799Z" fill="#91CDD7"/>
<path fill-rule="evenodd" clip-rule="evenodd" d="M7.57841 7.87899C7.57841 8.9038 7.57841 9.92937 7.57841 10.9542C7.57841 11.026 7.57643 11.0963 7.57643 11.1681C7.57709 11.255 7.53947 11.2973 7.46293 11.2958C7.41871 11.295 7.3745 11.2965 7.32963 11.2965C6.65589 11.2965 5.98282 11.2973 5.30974 11.2965C5.05569 11.2965 5.05305 11.2943 5.05305 11.0222C5.05239 8.94159 5.05239 6.86099 5.05305 4.77962C5.05305 4.52493 5.05701 4.52267 5.26949 4.51889C5.46415 4.51586 5.65948 4.5204 5.8548 4.51889C5.94388 4.51813 5.98414 4.56423 5.9815 4.66475C5.97952 4.74637 5.98216 4.82724 5.98216 4.9081C5.98216 6.62368 5.98216 8.33925 5.98216 10.0548C5.98216 10.4365 5.98348 10.4365 6.31936 10.435C6.32793 10.435 6.33717 10.435 6.34575 10.435C6.6064 10.4319 6.60838 10.4319 6.60838 10.1319C6.60904 8.44732 6.60772 6.76274 6.61036 5.07739C6.61036 4.89828 6.6328 4.71992 6.64468 4.54156C6.79447 4.534 6.94294 4.51964 7.09273 4.51964C7.24187 4.5204 7.391 4.53476 7.54013 4.54232C7.55267 4.72067 7.57511 4.89903 7.57577 5.07739C7.58038 6.01151 7.57841 6.94563 7.57841 7.87899Z" fill="#91CDD7"/>
<path fill-rule="evenodd" clip-rule="evenodd" d="M9.49239 9.80197C9.49239 9.39625 9.4931 8.98903 9.49239 8.58407C9.49169 8.44279 9.51497 8.29244 9.3308 8.24408C9.29904 8.23577 9.27011 8.14738 9.26799 8.09449C9.25952 7.92148 9.26446 7.74846 9.26446 7.5762C9.26376 7.45456 9.25176 7.33821 9.41195 7.29741C9.45499 7.28684 9.48675 7.14404 9.48816 7.06245C9.49521 6.61593 9.49169 6.16942 9.49169 5.72291C9.49169 5.38821 9.49521 5.05351 9.49027 4.71806C9.48816 4.57905 9.52908 4.51634 9.66951 4.51785C10.3237 4.52314 10.9778 4.52087 11.6312 4.5186C11.7343 4.5186 11.7893 4.55034 11.7886 4.67349C11.7865 5.52647 11.7865 6.37945 11.7893 7.23168C11.7893 7.34501 11.7547 7.40016 11.6418 7.39714C11.5698 7.39563 11.4725 7.37977 11.4619 7.49234C11.452 7.60113 11.4548 7.71597 11.4823 7.81872C11.4915 7.85348 11.5945 7.87161 11.6573 7.87388C11.7561 7.87766 11.7893 7.92601 11.7886 8.02498C11.7858 8.26826 11.7879 8.51229 11.7879 8.75633C11.7879 9.52696 11.7893 10.2999 11.7872 11.0705C11.7865 11.2888 11.7823 11.2941 11.5854 11.2949C10.9602 11.2971 10.3342 11.2979 9.70903 11.2949C9.49804 11.2941 9.49451 11.2896 9.49239 11.0508C9.49027 10.633 9.49239 10.2175 9.49239 9.80197ZM10.9256 9.41665C10.9263 9.15222 10.9291 8.89081 10.9242 8.62789C10.9235 8.5614 10.9094 8.44203 10.8839 8.43599C10.7513 8.40425 10.6109 8.38461 10.4747 8.39519C10.3667 8.40425 10.3738 8.52287 10.3731 8.61278C10.3723 9.12804 10.3702 9.64406 10.3731 10.1593C10.3752 10.4238 10.3858 10.4298 10.6313 10.4336C10.6687 10.4343 10.7054 10.4306 10.7428 10.4336C10.8762 10.4427 10.9284 10.3739 10.9263 10.2334C10.9235 9.96289 10.9256 9.6894 10.9256 9.41665ZM10.9256 6.35679C10.9256 6.12409 10.9235 5.89139 10.9256 5.65793C10.927 5.53478 10.8769 5.4683 10.7605 5.46452C10.7033 5.46301 10.6476 5.45923 10.5904 5.46301C10.4062 5.47358 10.3773 5.49852 10.3752 5.69797C10.3688 6.08178 10.3723 6.46634 10.3731 6.85166C10.3745 7.21053 10.3886 7.22488 10.7273 7.20448C10.7365 7.20448 10.7456 7.20373 10.7555 7.20448C10.8734 7.21128 10.9277 7.15235 10.9263 7.02467C10.9235 6.80255 10.9249 6.57967 10.9256 6.35679Z" fill="#91CDD7"/>
<path fill-rule="evenodd" clip-rule="evenodd" d="M13.4737 7.91127C13.4737 6.86606 13.4729 5.82085 13.4744 4.77564C13.4752 4.52397 13.4781 4.52019 13.7165 4.51944C14.4043 4.51717 15.0928 4.51717 15.7813 4.52019C15.9908 4.52095 15.9952 4.52624 15.9967 4.74239C15.9997 5.19886 15.993 5.65534 15.9997 6.11257C16.0019 6.25617 15.9529 6.31738 15.8095 6.3068C15.6231 6.29244 15.4345 6.28791 15.2473 6.27959C15.2354 6.09972 15.2183 5.92137 15.2109 5.74225C15.2005 5.47925 15.1953 5.46867 14.9398 5.46187C14.8002 5.45884 14.6613 5.46187 14.5217 5.46262C14.3998 5.46262 14.3367 5.52459 14.336 5.64854C14.3352 5.70975 14.3337 5.77097 14.3337 5.83143C14.3337 7.24243 14.3337 8.65191 14.3337 10.0629C14.3337 10.0826 14.3337 10.1045 14.3337 10.1241C14.3397 10.4272 14.3427 10.4347 14.6368 10.4332C15.1663 10.4295 15.1359 10.5111 15.1359 9.92914C15.1359 9.44168 15.1359 8.95422 15.1359 8.46751C15.1359 8.34357 15.1418 8.22189 14.9792 8.18108C14.9413 8.17201 14.9027 8.09114 14.9012 8.04202C14.893 7.81907 14.9012 7.59612 14.896 7.37242C14.8923 7.23412 14.9606 7.20086 15.0809 7.20389C15.3201 7.20842 15.5607 7.20237 15.7984 7.20615C15.9915 7.20918 15.9975 7.2122 15.9982 7.41399C16.0004 8.15538 15.9989 8.89527 15.9989 9.63591C15.9989 10.1135 16.0012 10.5904 15.9982 11.0673C15.9967 11.2887 15.993 11.294 15.788 11.2948C15.0995 11.2978 14.411 11.2971 13.7232 11.2956C13.4796 11.2948 13.4766 11.2918 13.4759 11.0462C13.4729 10.0017 13.4737 8.95648 13.4737 7.91127Z" fill="#91CDD7"/>
<path fill-rule="evenodd" clip-rule="evenodd" d="M3.36779 6.47285C3.36779 7.05094 3.36956 7.62903 3.36691 8.20636C3.36603 8.424 3.36162 8.42777 3.11458 8.42929C2.65314 8.43306 2.18994 8.42853 1.72939 8.4308C1.39412 8.43306 1.38707 8.43684 1.38618 8.71946C1.38354 9.45927 1.3853 10.1983 1.3853 10.9396C1.3853 11.0197 1.39765 11.1044 1.37648 11.1814C1.36413 11.2253 1.29531 11.2872 1.24855 11.2895C0.976805 11.2993 0.705061 11.2993 0.433318 11.2895C0.388322 11.2872 0.323033 11.2238 0.308034 11.1792C0.28686 11.1127 0.300094 11.0386 0.300094 10.9676C0.300094 10.2882 0.300094 9.60889 0.299211 8.9303C0.299211 8.7905 0.336267 8.63558 0.0892282 8.6046C0.0521723 8.60007 0.00717586 8.5109 0.00541129 8.46102C-0.00341153 8.2177 0.000999926 7.97437 0.00188221 7.73105C0.00188221 7.65699 0.0107052 7.57991 0.121873 7.57462C0.288624 7.56555 0.300094 7.47034 0.300094 7.36228C0.299211 6.99729 0.300094 6.6323 0.300094 6.26731C0.300094 5.76101 0.298329 5.25395 0.300976 4.7469C0.300976 4.52624 0.30627 4.52095 0.550662 4.52019C1.40295 4.51717 2.25611 4.51717 3.10752 4.51944C3.35985 4.52095 3.36514 4.52548 3.36603 4.73934C3.36956 5.31743 3.36779 5.89476 3.36779 6.47285ZM1.44706 6.50837C1.44706 6.77285 1.44441 7.03658 1.44794 7.30031C1.45059 7.56631 1.45324 7.56631 1.76468 7.57084C1.81233 7.5716 1.85997 7.5716 1.90761 7.57084C2.19436 7.56404 2.20935 7.55724 2.21112 7.31089C2.21641 6.82348 2.212 6.33607 2.21288 5.84867C2.21288 5.50106 2.272 5.45043 1.72586 5.46176C1.71439 5.46176 1.70204 5.46176 1.68969 5.46252C1.47882 5.47839 1.45412 5.49577 1.44971 5.68695C1.44353 5.96126 1.44794 6.23557 1.44706 6.50837Z" fill="#91CDD7"/>
</svg>
