<svg width="27" height="31" viewBox="0 0 27 31" fill="none" xmlns="http://www.w3.org/2000/svg">
<path d="M2 21.6311L2.00485 3.45694L13.5024 1L25 3.45694V21.6383L13.5107 30L2 21.6311Z" stroke="#637488"/>
<rect y="9" width="27" height="9" fill="#637488"/>
<path d="M4.1994 11.456V10.9091H8.01758V11.456H6.41673V16H5.80025V11.456H4.1994Z" fill="black"/>
<path d="M13.0526 13.4545C13.0526 13.9915 12.9556 14.4555 12.7617 14.8466C12.5678 15.2377 12.3019 15.5393 11.9638 15.7514C11.6257 15.9635 11.2396 16.0696 10.8054 16.0696C10.3712 16.0696 9.98509 15.9635 9.64702 15.7514C9.30895 15.5393 9.04297 15.2377 8.84908 14.8466C8.65519 14.4555 8.55824 13.9915 8.55824 13.4545C8.55824 12.9176 8.65519 12.4536 8.84908 12.0625C9.04297 11.6714 9.30895 11.3698 9.64702 11.1577C9.98509 10.9455 10.3712 10.8395 10.8054 10.8395C11.2396 10.8395 11.6257 10.9455 11.9638 11.1577C12.3019 11.3698 12.5678 11.6714 12.7617 12.0625C12.9556 12.4536 13.0526 12.9176 13.0526 13.4545ZM12.456 13.4545C12.456 13.0137 12.3822 12.6417 12.2347 12.3384C12.0889 12.0351 11.8909 11.8056 11.6406 11.6498C11.3921 11.4941 11.1136 11.4162 10.8054 11.4162C10.4972 11.4162 10.2179 11.4941 9.96769 11.6498C9.71911 11.8056 9.52108 12.0351 9.37359 12.3384C9.22775 12.6417 9.15484 13.0137 9.15484 13.4545C9.15484 13.8953 9.22775 14.2674 9.37359 14.5707C9.52108 14.8739 9.71911 15.1034 9.96769 15.2592C10.2179 15.415 10.4972 15.4929 10.8054 15.4929C11.1136 15.4929 11.3921 15.415 11.6406 15.2592C11.8909 15.1034 12.0889 14.8739 12.2347 14.5707C12.3822 14.2674 12.456 13.8953 12.456 13.4545Z" fill="black"/>
<path d="M17.43 10.9091H18.0465V14.2798C18.0465 14.6278 17.9645 14.9386 17.8004 15.212C17.638 15.4838 17.4085 15.6984 17.1119 15.8558C16.8152 16.0116 16.4672 16.0895 16.0678 16.0895C15.6684 16.0895 15.3204 16.0116 15.0238 15.8558C14.7272 15.6984 14.4968 15.4838 14.3327 15.212C14.1703 14.9386 14.0891 14.6278 14.0891 14.2798V10.9091H14.7056V14.2301C14.7056 14.4787 14.7603 14.6999 14.8697 14.8938C14.9791 15.086 15.1348 15.2377 15.337 15.3487C15.5408 15.4581 15.7845 15.5128 16.0678 15.5128C16.3512 15.5128 16.5948 15.4581 16.7987 15.3487C17.0025 15.2377 17.1583 15.086 17.266 14.8938C17.3754 14.6999 17.43 14.4787 17.43 14.2301V10.9091Z" fill="black"/>
<path d="M19.2776 16V10.9091H20.9978C21.3955 10.9091 21.722 10.977 21.9772 11.1129C22.2324 11.2471 22.4213 11.4319 22.544 11.6672C22.6666 11.9026 22.7279 12.1702 22.7279 12.4702C22.7279 12.7701 22.6666 13.0361 22.544 13.2681C22.4213 13.5001 22.2332 13.6824 21.9797 13.815C21.7261 13.9459 21.4021 14.0114 21.0077 14.0114H19.6157V13.4545H20.9878C21.2596 13.4545 21.4784 13.4148 21.6441 13.3352C21.8115 13.2557 21.9324 13.143 22.007 12.9971C22.0833 12.8497 22.1214 12.674 22.1214 12.4702C22.1214 12.2663 22.0833 12.0882 22.007 11.9357C21.9308 11.7833 21.809 11.6656 21.6416 11.5827C21.4742 11.4982 21.253 11.456 20.9779 11.456H19.8941V16H19.2776ZM21.6739 13.7131L22.9268 16H22.2109L20.9779 13.7131H21.6739Z" fill="black"/>
</svg>
