<svg width="16" height="17" viewBox="0 0 16 17" fill="currentColor" xmlns="http://www.w3.org/2000/svg">
    <path clip-rule="evenodd" d="M15.9987 14.0953C15.9987 14.746 15.9987 15.398 15.9987 16.0494C15.5869 15.9129 15.1805 15.7575 14.7594 15.6512C14.6116 15.6138 14.4332 15.6984 14.2675 15.7273C14.2728 15.7548 14.2807 15.7811 14.2854 15.8086C14.4418 15.8276 14.6003 15.8486 14.7581 15.8677C14.4849 15.9864 14.2171 16.0677 13.9432 16.132C13.8305 16.1602 13.7065 16.1681 13.5925 16.1517C13.2172 16.0933 12.8519 15.9903 12.458 16.0021C12.2326 16.0107 12.0012 15.7857 11.783 16.052C11.7612 16.0808 11.6703 16.052 11.612 16.0585C11.3242 16.0933 11.0398 16.1314 10.7427 16.1707C10.7334 16.1399 10.7089 16.0618 10.6731 15.9444C10.6187 16.1058 10.6161 16.2258 10.5538 16.2684C10.4099 16.3714 10.2388 16.4482 10.0512 16.3176C10.1679 16.275 10.2713 16.2389 10.3747 16.2029C9.92653 16.1786 9.49953 16.1753 9.07054 16.1799C9.02147 16.1812 8.93196 16.2114 8.92798 16.2389C8.88621 16.4902 8.67669 16.3891 8.54872 16.4016C8.45391 16.4101 8.34915 16.3104 8.24903 16.258C8.23113 16.2494 8.21521 16.2337 8.15421 16.1878C8.1204 16.256 8.08658 16.3255 8.05277 16.401C7.80744 16.1582 7.54222 16.1294 7.28695 16.2068C7.13512 16.2534 7.01444 16.3996 6.87984 16.5C6.86327 16.5 6.84603 16.5 6.82945 16.5C6.74326 16.3485 6.65109 16.1996 6.57286 16.0441C6.5039 15.9064 6.42234 15.89 6.26984 15.9241C6.10607 15.9615 5.92573 15.9293 5.75267 15.9241C5.66714 15.9208 5.58227 15.9103 5.49674 15.9031C5.4848 15.9293 5.47353 15.9556 5.46226 15.9818C5.36545 15.8716 5.26865 15.7627 5.15593 15.6348C5.11284 15.7201 5.07173 15.8014 5.02332 15.8946C4.96431 15.8165 4.91657 15.7529 4.82905 15.6368C4.79789 15.7758 4.77932 15.8559 4.76209 15.9346C4.69048 15.8939 4.61821 15.8545 4.54196 15.8112C4.49886 15.8637 4.46239 15.9077 4.41332 15.9687C4.36227 15.9051 4.32647 15.8598 4.29597 15.8237C4.1806 15.869 4.07517 15.9103 3.96047 15.9556C3.92731 15.8788 3.90146 15.8191 3.87427 15.7568C3.62231 15.8152 3.37434 15.8729 3.11641 15.9326C3.09387 15.8624 3.06204 15.7601 3.01696 15.6158C2.93938 15.726 2.89496 15.7896 2.84655 15.8598C2.78489 15.8099 2.73583 15.7712 2.74644 15.7798C2.61316 15.8145 2.53957 15.8526 2.46729 15.8493C2.04494 15.8336 1.62324 15.7785 1.20619 15.9051C1.14055 15.9254 1.05634 15.8841 0.968154 15.869C0.957545 15.8965 0.938317 15.9444 0.911132 16.0153C0.877317 15.928 0.853448 15.867 0.823611 15.7916C0.735426 15.8598 0.668459 15.9116 0.580274 15.9792C0.561046 15.8716 0.547122 15.7942 0.533861 15.7207C0.386665 15.6919 0.257372 15.6669 0.11747 15.6394C0.309752 14.952 0.266655 14.2789 0.210296 13.6033C0.189079 13.3481 0.206981 13.0864 0.22422 12.8299C0.233502 12.6935 0.240133 12.5348 0.453633 12.5321C0.484133 12.5321 0.539828 12.4521 0.539828 12.4095C0.545796 11.8854 0.543807 11.3626 0.543807 10.8529C0.464904 10.7978 0.289198 10.7342 0.286546 10.6653C0.265329 10.0297 0.273948 9.3921 0.273948 8.75517C0.323676 8.76041 0.373405 8.76632 0.438383 8.77419C0.393296 8.69679 0.360144 8.64037 0.296492 8.53017C0.431089 8.58003 0.504024 8.60758 0.65785 8.66399C0.608785 8.40095 0.630002 8.15235 0.519274 7.9936C0.344894 7.745 0.291187 7.50951 0.330307 7.22089C0.360144 7.00508 0.378046 6.77747 0.341578 6.56494C0.10885 5.20646 0.120122 3.84077 0.222894 2.47179C0.240796 2.23434 0.255383 1.99688 0.274611 1.72138C0.0591222 1.82306 -0.0138125 1.76664 0.00210049 1.58429C0.0180135 1.40128 0.0233179 1.21761 0.0392309 1.03395C0.0425461 0.999836 0.0796765 0.969006 0.107524 0.927025C0.118133 1.09101 0.126753 1.23204 0.136035 1.37176C0.161231 1.37176 0.185763 1.37176 0.209633 1.37176C0.237481 1.19006 0.265329 1.00902 0.294502 0.818793C0.769241 1.03132 0.848806 1.02214 1.32089 0.74467C1.47538 0.792555 1.58478 0.848311 1.6975 0.856838C1.84801 0.86799 2.00184 0.824697 2.15235 0.836504C2.33469 0.850279 2.51371 0.912594 2.69671 0.923745C3.05939 0.944736 3.42274 0.953263 3.78542 0.949984C3.8882 0.949328 3.9903 0.891604 4.08711 0.86143C4.22038 0.928337 4.3563 1.03919 4.50482 1.05953C4.77004 1.09495 5.04719 1.10282 5.31241 1.06937C5.54978 1.03919 5.83754 1.25697 6.0285 0.946048C6.0411 0.925057 6.11403 0.948016 6.14917 0.930961C6.20553 0.904067 6.26985 0.871925 6.30366 0.822729C6.42632 0.645621 6.5828 0.566907 6.79962 0.610856C6.84868 0.620695 6.92493 0.63775 6.94681 0.61348C7.11788 0.424565 7.3022 0.559036 7.48122 0.581338C7.57339 0.592489 7.67483 0.636438 7.7544 0.611512C8.0594 0.517055 8.35313 0.589866 8.65746 0.614792C9.15342 0.655461 9.54329 0.808298 9.70772 1.31469C9.87348 1.29829 10.0326 1.2655 10.1898 1.27009C10.3489 1.27468 10.4344 1.19793 10.4629 1.06806C10.4875 0.963759 10.4682 0.849623 10.4682 0.719088C11.4834 0.591833 12.4952 0.780092 13.5255 0.819449C13.5162 0.700722 13.5103 0.610856 13.5023 0.521646C13.5215 0.514431 13.5428 0.507871 13.562 0.5C13.5985 0.573467 13.623 0.659397 13.6774 0.71712C13.7331 0.776156 13.857 0.86143 13.8836 0.842407C14.0546 0.713841 14.1985 0.829288 14.359 0.854214C14.5141 0.878485 14.6786 0.83388 14.8383 0.840439C15.0339 0.848967 15.2362 0.850935 15.4159 0.908003C15.5571 0.951951 15.6725 1.07461 15.7951 1.1671C15.8316 1.19465 15.878 1.23663 15.882 1.27599C15.9012 1.47475 15.9728 1.69843 15.9052 1.86766C15.7991 2.14119 15.8647 2.39111 15.8833 2.65153C15.9211 3.19072 15.9609 3.73057 16 4.26976C16 4.33667 16 4.40357 16 4.47048C15.9768 4.85093 15.9536 5.23204 15.9277 5.6125C15.9005 6.02706 15.9005 6.02706 15.5027 6.07166C15.4895 6.07297 15.4795 6.09003 15.4636 6.1038C15.4716 6.1366 15.4742 6.17137 15.4868 6.19957C15.579 6.38062 15.6267 6.53214 15.4132 6.69088C15.3469 6.74074 15.3535 6.96245 15.4026 7.0733C15.5047 7.30682 15.7461 7.48131 15.6811 7.78632C15.6678 7.8447 15.7315 7.91948 15.7613 7.98508C15.7805 8.0264 15.8276 8.06773 15.8236 8.10577C15.7785 8.53673 15.7275 8.96704 15.6784 9.40521C15.6161 9.42292 15.5491 9.44457 15.4788 9.46359C15.4788 9.48786 15.4788 9.51148 15.4775 9.53641C15.6174 9.55936 15.7587 9.58298 15.9344 9.61184C15.9344 9.70171 15.9344 9.79813 15.9357 9.89587C15.945 11.1796 15.9549 12.4626 15.9668 13.7476C15.9688 13.8631 15.9881 13.9792 15.9987 14.0953ZM8.09852 10.0179C8.12504 10.0002 8.15289 9.98311 8.17875 9.9654C8.26958 10.1497 8.35909 10.336 8.45126 10.521C8.48507 10.5859 8.51358 10.6574 8.5653 10.7053C8.6442 10.7788 8.75559 10.8201 8.8272 10.8988C8.99827 11.0904 9.1448 11.3022 9.31388 11.4925C9.55323 11.7614 9.80851 12.0179 10.0545 12.2809C10.3409 12.5872 10.5942 12.9303 10.9145 13.1953C11.4595 13.6433 12.1371 13.6669 12.8101 13.6669C13.0044 13.6669 13.1211 13.5954 13.2165 13.436C13.6986 12.6364 14.0049 11.7824 14.0858 10.8477C14.101 10.662 14.0467 10.5597 13.8915 10.4646C13.5925 10.2783 13.3114 10.0638 13.007 9.88275C12.8545 9.79288 12.6689 9.75746 12.5044 9.68399C12.4176 9.64661 12.3334 9.59151 12.2691 9.52525C12.1915 9.4472 12.1497 9.32125 12.0628 9.26222C11.1757 8.65349 10.2939 8.03755 9.3888 7.45704C7.98248 6.55576 6.69287 5.47803 5.1672 4.76107C5.14334 4.74992 5.14798 4.69023 5.12411 4.66989C5.083 4.6325 4.99481 4.57478 4.98752 4.58199C4.83436 4.74401 4.81712 4.53477 4.7654 4.49147C4.63279 4.38193 4.53731 4.22844 4.40205 4.12283C4.15739 3.93194 3.89483 3.76402 3.64088 3.58495C3.09254 3.19925 2.40497 3.24713 1.88846 3.71089C1.92492 3.75549 1.95874 3.80403 1.99852 3.84601C3.14492 5.06018 4.29 6.2737 5.43971 7.48327C5.59023 7.64267 5.70891 7.85389 5.97612 7.86176C6.01723 7.86307 6.08552 7.91095 6.09215 7.94638C6.16508 8.31437 6.49528 8.48754 6.70812 8.74861C7.11456 9.24779 7.63306 9.64595 8.01763 10.1668C8.07929 10.2507 8.17477 10.3091 8.25566 10.3786C8.27489 10.3596 8.2961 10.3399 8.31533 10.3209C8.24306 10.2206 8.17145 10.1182 8.09852 10.0179ZM6.28974 13.1566C5.20102 12.113 4.16203 11.1179 3.10249 10.1031C2.99441 10.3334 2.89695 10.5269 2.81274 10.7263C2.57073 11.2937 2.33004 11.8624 2.09798 12.4357C2.03234 12.5984 2.04096 12.7637 2.20539 12.8857C2.62444 13.1927 3.04348 13.5003 3.45854 13.806C3.66541 13.6623 3.74697 13.6794 3.78542 13.9175C4.60362 13.6689 5.41386 13.4223 6.28974 13.1566ZM9.47964 4.02771C10.3993 4.72565 11.2679 5.3875 12.1398 6.0487C12.1497 6.0369 12.163 6.02509 12.1742 6.01394C12.1484 5.96081 12.1252 5.90767 12.1006 5.85389C12.1212 5.84405 12.1424 5.83355 12.163 5.82371C12.1928 5.89718 12.2047 5.99164 12.2578 6.03952C12.3486 6.12086 12.466 6.17268 12.5727 6.23696C12.6092 6.1694 12.6649 6.10577 12.6775 6.03493C12.7604 5.55871 12.8326 5.08052 12.9069 4.60233C12.9275 4.46195 12.942 4.31896 12.9666 4.10971C12.8837 4.19761 12.8565 4.22778 12.828 4.25795C12.8161 4.2468 12.8021 4.23565 12.7889 4.22384C12.8433 4.16218 12.8963 4.09921 12.9653 4.01984C12.7232 3.84733 12.4899 3.65316 12.2286 3.51017C12.0914 3.43539 11.8918 3.39997 11.7433 3.43473C11.0073 3.60922 10.2786 3.81453 9.47964 4.02771Z"/>
</svg>
