<svg width="27" height="31" viewBox="0 0 27 31" fill="none" xmlns="http://www.w3.org/2000/svg">
<path d="M2 21.6311L2.00485 3.45694L13.5024 1L25 3.45694V21.6383L13.5107 30L2 21.6311Z" stroke="#637488"/>
<rect y="9" width="27" height="9" fill="#637488"/>
<path d="M4.02167 11.456V10.9091H7.83985V11.456H6.239V16H5.62252V11.456H4.02167Z" fill="black"/>
<path d="M8.79129 16V10.9091H11.8637V11.456H9.40777V13.1762H11.7046V13.723H9.40777V15.4532H11.9035V16H8.79129Z" fill="black"/>
<path d="M13.1837 16H12.5374L14.4067 10.9091H15.0431L16.9124 16H16.2661L14.7448 11.7145H14.705L13.1837 16ZM13.4223 14.0114H16.0274V14.5583H13.4223V14.0114Z" fill="black"/>
<path d="M17.7054 10.9091H18.4411L20.1713 15.135H20.2309L21.961 10.9091H22.6968V16H22.1201V12.1321H22.0704L20.4795 16H19.9227L18.3318 12.1321H18.2821V16H17.7054V10.9091Z" fill="black"/>
</svg>
