<svg width="77" height="32" viewBox="0 0 77 32" fill="none" xmlns="http://www.w3.org/2000/svg">
<path d="M24.0483 18.7724L24.1518 18.1856H23.5559H12.521H12.1017L12.0287 18.5985L11.4769 21.7185L11.373 22.3056H11.9692H18.2465L18.0224 23.5945C18.0224 23.5949 18.0223 23.5953 18.0222 23.5957C17.9224 24.1548 17.7434 24.458 17.4455 24.652C17.1138 24.8681 16.5469 25.0086 15.5304 25.0086H8.68371C7.56839 25.0086 6.95984 24.918 6.62913 24.737C6.487 24.6592 6.4053 24.5684 6.35076 24.4516C6.29052 24.3225 6.24955 24.1306 6.24955 23.8343C6.24955 23.5216 6.29354 23.1491 6.36776 22.6732L7.1444 18.2133L7.14463 18.212C7.36427 16.9302 7.70686 16.22 8.19632 15.8092C8.68559 15.3985 9.42084 15.2033 10.64 15.2033H21.7975H23.554L22.0611 14.2785L22.061 14.2784L22.061 14.2784L22.0609 14.2784L22.0608 14.2783L22.0596 14.2776L22.0521 14.2728L22.0192 14.2517C21.9897 14.2325 21.9457 14.2034 21.8902 14.1653C21.7791 14.0891 21.6231 13.9774 21.4465 13.8379C21.0884 13.5552 20.6662 13.1742 20.3561 12.7551L20.3559 12.7549C19.9398 12.1934 19.7071 11.5263 19.5521 11.0488L19.44 10.7031H19.0766H10.1132C7.79228 10.7031 5.97366 11.1292 4.62767 12.2448C3.28072 13.3613 2.49514 15.095 2.07182 17.5084L2.07152 17.5101L1.14329 22.9127L1.14328 22.9127L1.14266 22.9165C1.04207 23.5301 0.960632 24.1469 0.960632 24.6966C0.960632 26.3309 1.47914 27.5782 2.56845 28.3943C3.6276 29.1878 5.14394 29.5088 7.00314 29.5088H15.4302C17.7108 29.5088 19.4869 29.1579 20.7898 28.182C22.106 27.1962 22.8464 25.6444 23.221 23.4638C23.2211 23.4634 23.2211 23.463 23.2212 23.4627L24.0483 18.7724Z" fill="#91CDD7" fill-opacity="0.01" stroke="#91CDD7"/>
<path d="M54.0322 11.2879L54.1327 10.7031H53.5394H36.8827H36.5662L36.4308 10.9892L35.8543 12.2073L35.7769 12.3708L35.8221 12.546C35.931 12.9683 35.8534 13.4318 35.7243 13.8213C35.6615 14.0109 35.5905 14.1707 35.5357 14.2821C35.5084 14.3376 35.4855 14.3803 35.4701 14.408C35.4624 14.4219 35.4566 14.4319 35.4532 14.4378L35.4498 14.4435C35.4498 14.4436 35.4498 14.4435 35.4498 14.4436C35.4496 14.4439 35.4495 14.4441 35.4495 14.444L34.986 15.2033H35.877H40.8312L38.4754 28.7202L38.3733 29.306H38.9679H43.1311H43.5515L43.6237 28.8919L46.0094 15.2033H52.9375H53.3588L53.4302 14.7881L54.0322 11.2879Z" fill="#91CDD7" fill-opacity="0.05" stroke="#91CDD7"/>
<path d="M35.9749 21.4584C36.4707 21.2381 36.945 21.0275 37.4226 20.816C37.3301 20.5519 37.2476 20.3192 37.161 20.0698C36.6489 20.2947 36.1718 20.5044 35.6687 20.7247C35.768 20.963 35.866 21.1985 35.9749 21.4584ZM36.5495 18.6854C35.9289 18.9417 35.3456 19.1822 34.75 19.4279C34.8908 19.7431 35.0161 20.0228 35.1465 20.3136C35.7439 20.0657 36.3312 19.8214 36.9368 19.5703C36.8047 19.2693 36.6826 18.9896 36.5495 18.6854ZM33.8309 17.4738C34.4657 17.2162 35.0922 16.9623 35.7343 16.7019C35.6008 16.3457 35.4859 16.0387 35.3684 15.7253C34.7003 16.0019 34.0665 16.2645 33.4144 16.5346C33.5579 16.8591 33.6919 17.1609 33.8309 17.4738ZM35.9316 17.1314C35.2727 17.425 34.6402 17.707 34.0072 17.9895C34.1485 18.3232 34.277 18.626 34.4142 18.9486C35.0745 18.6601 35.7033 18.3854 36.3408 18.1071C36.2027 17.7785 36.0724 17.4674 35.9316 17.1314ZM31.6258 5.23071C31.6094 5.24269 31.5926 5.25467 31.5762 5.26666C32.6457 7.07736 33.7161 8.88807 34.7906 10.7071C34.8115 10.6799 34.8329 10.6573 34.8475 10.631C35.4235 9.61669 35.7885 8.5263 35.9621 7.37369C36.0906 6.52249 36.0647 5.68143 35.6573 4.89198C35.6099 4.80165 35.5939 4.69612 35.5543 4.60118C35.3957 4.21636 35.2339 3.83385 35.0704 3.44305C34.1521 3.82924 33.2631 4.203 32.334 4.59381C32.5336 4.77538 32.6894 4.91641 32.8589 5.07033C32.6347 5.36113 32.4351 5.61921 32.2323 5.88236C32.0204 5.6547 31.8227 5.4427 31.6258 5.23071ZM20.4943 9.56784C20.6684 10.0112 20.8165 10.42 20.9883 10.8191C21.1838 11.2735 21.3619 11.7394 21.6887 12.1237C22.1799 12.7012 22.7705 13.1648 23.4148 13.5358C23.989 13.8672 24.6196 14.0999 25.2307 14.3644C25.4025 14.4391 25.5921 14.469 25.8108 14.5303C25.7019 14.1041 25.6039 13.7377 25.5151 13.3685C25.1514 11.8624 24.7924 10.3554 24.4255 8.84982C24.3813 8.66732 24.3025 8.49312 24.2396 8.31476C24.2209 8.3203 24.2022 8.32536 24.1836 8.33089V9.28671C23.8655 9.23786 23.5656 9.19178 23.2653 9.14615C23.2549 8.89913 23.2448 8.67331 23.2335 8.42122C22.3089 8.8088 21.4153 9.18256 20.4943 9.56784ZM31.6276 16.6226C30.9701 16.789 30.3312 16.9485 29.6955 17.1162C29.6363 17.1319 29.5771 17.1913 29.5415 17.2457C29.2412 17.7089 28.9396 18.1716 28.6557 18.6444C28.6064 18.726 28.6001 18.8721 28.637 18.9624C28.9783 19.8044 29.3328 20.6408 29.6805 21.475C27.3287 23.83 24.9992 26.1615 22.6278 28.5349H25.6167C26.9755 28.5349 28.3339 28.5303 29.6933 28.5399C29.8824 28.5413 29.9753 28.4809 30.0405 28.309C30.1412 28.0436 30.2556 27.7818 30.3759 27.5237C30.8193 26.5707 31.2667 25.6195 31.7133 24.6683C32.0729 23.9037 32.4374 23.1415 32.7901 22.3737C32.8234 22.3009 32.8097 22.1866 32.7787 22.1068C32.6789 21.8488 32.5572 21.599 32.4511 21.3437C32.0792 20.4537 31.7092 19.5643 31.3433 18.6725C31.2636 18.479 31.2052 18.2766 31.1428 18.0942C31.6044 17.8909 32.0287 17.707 32.4488 17.5153C32.5021 17.4914 32.5764 17.4218 32.5732 17.378C32.5531 17.0498 32.5158 16.7226 32.4821 16.3765C32.3718 16.4102 32.2929 16.4337 32.2091 16.459C32.2424 16.6189 32.2697 16.7558 32.3002 16.9065C32.1061 16.9558 31.9275 17.0015 31.7388 17.0494C31.6987 16.8955 31.6655 16.7669 31.6276 16.6226ZM30.2401 29.0086H21.5146C21.6103 28.8865 21.6736 28.7934 21.7488 28.7114C21.9894 28.4515 22.23 28.1915 22.4788 27.9399C22.6278 27.7892 22.7996 27.6606 22.9482 27.5099C23.3952 27.0569 23.8295 26.5919 24.2797 26.143C24.6971 25.7269 25.135 25.3314 25.552 24.9148C26.014 24.454 26.4556 23.9733 26.9172 23.5124C27.3729 23.0576 27.8441 22.6188 28.3062 22.17C28.5422 21.9405 28.7769 21.7091 29.0024 21.4685C29.043 21.4261 29.0649 21.3229 29.0435 21.2695C28.7249 20.4777 28.3936 19.691 28.0774 18.8983C28.0441 18.8145 28.0478 18.6804 28.092 18.6052C28.3175 18.2264 28.5618 17.8596 28.8142 17.4669C28.5846 17.3697 28.375 17.272 28.1585 17.1909C27.5383 16.9591 27.0608 16.5332 26.6124 16.0613C26.5267 15.9701 26.4046 15.8954 26.2856 15.8585C25.3884 15.5797 24.4825 15.3276 23.634 14.905C22.5235 14.352 21.536 13.6372 20.7582 12.6597C20.5312 12.3754 20.3708 12.027 20.2241 11.6892C19.8459 10.8195 19.4932 9.93836 19.1314 9.06181C19.1109 9.01204 19.0976 8.95858 19.0744 8.88761C20.5417 8.27052 21.9963 7.6585 23.4936 7.02897C23.3369 6.85385 23.2166 6.7013 23.0776 6.56766C22.9514 6.44599 22.9787 6.35566 23.1159 6.29621C23.6627 6.06117 24.2155 5.83858 24.7627 5.60354C25.3538 5.34961 25.9402 5.08416 26.5308 4.8293C27.2371 4.52468 27.9452 4.22466 28.6538 3.92556C29.3251 3.64121 29.9981 3.36101 30.6698 3.07989C30.7568 3.04348 30.8439 3.00523 30.9345 2.98403C31.0881 2.94809 31.1761 3.00247 31.1701 3.17851C31.1638 3.37576 31.1683 3.57255 31.1683 3.79837C32.6425 3.17759 34.0897 2.56788 35.5602 1.94849C35.7402 2.35496 35.912 2.72595 36.0688 3.10247C36.3431 3.75919 36.6311 4.41131 36.8708 5.08093C37.0859 5.68327 37.1086 6.31879 37.0808 6.95846C37.0403 7.88755 36.7933 8.76456 36.5085 9.64295C36.2301 10.5025 35.773 11.2661 35.3734 12.062C35.3306 12.1477 35.3009 12.2551 35.3069 12.3496C35.3615 13.1681 35.2221 13.9446 34.8475 14.6755C34.6981 14.9682 34.5486 15.2603 34.4005 15.5516C34.7792 15.4078 35.1861 15.2534 35.6258 15.0866C36.4461 17.072 37.2631 19.05 38.0519 20.9588C38.3568 20.9842 38.6425 20.934 38.8444 21.0427C39.1 21.1814 39.4923 21.5833 39.5484 21.857C39.6053 22.2419 39.5388 22.641 39.2964 22.7488C39.0312 22.8663 39.1934 22.799 38.9273 22.9133C37.9836 23.3193 37.0435 23.7323 36.0961 24.1291C35.1132 24.5411 34.1225 24.9333 33.1373 25.3416C32.6525 25.543 32.1717 25.7559 31.6942 25.9748C31.6286 26.0052 31.5775 26.0946 31.5429 26.1679C31.2098 26.8942 30.8831 27.6224 30.5522 28.3496C30.4543 28.5648 30.3499 28.7773 30.2401 29.0086Z" stroke="#91CDD7" stroke-width="1" />

</svg>
