<svg width="53" height="33" viewBox="0 0 53 33" fill="none" xmlns="http://www.w3.org/2000/svg">
<path d="M22.3329 17.2071L21.4965 21.8995C20.7614 26.1353 18.6574 27.5303 14.1197 27.5303H5.60211C1.92663 27.5303 0 26.262 0 23.218C0 22.7111 0.0764565 22.1277 0.177325 21.5189L1.11554 16.1162C1.95196 11.3984 4.15725 9.72461 8.74561 9.72461H17.8053C17.9629 10.2048 18.2185 10.9413 18.6924 11.574C19.3953 12.5137 20.5555 13.2248 20.5555 13.2248H9.27805C6.74298 13.2248 5.7039 14.011 5.247 16.649L4.46124 21.1133C4.38524 21.5949 4.33504 22.0009 4.33504 22.3558C4.33504 23.7001 5.07013 24.0301 7.30075 24.0301H14.2211C16.325 24.0301 17.009 23.472 17.2374 22.2037L17.5672 20.3271H10.6216L11.1793 17.2071H22.3329Z" fill="#91CDD7"/>
<path d="M52.6388 9.72461L52.0303 13.2248H44.6029L42.1185 27.3275H37.9106L40.395 13.2248H34.7864C34.7864 13.2248 35.5096 12.0529 35.2203 10.9427L35.803 9.72461H52.6388Z" fill="#91CDD7"/>
<path fill-rule="evenodd" clip-rule="evenodd" d="M34.8854 19.9799C35.3865 19.7596 35.866 19.549 36.3487 19.3375C36.2552 19.0734 36.1718 18.8407 36.0843 18.5913C35.5666 18.8162 35.0844 19.0259 34.5759 19.2462C34.6763 19.4845 34.7753 19.72 34.8854 19.9799ZM35.4662 17.2069C34.8389 17.4632 34.2493 17.7037 33.6474 17.9494C33.7897 18.2646 33.9163 18.5443 34.0481 18.8351C34.6519 18.5872 35.2456 18.3429 35.8577 18.0918C35.7241 17.7908 35.6007 17.5111 35.4662 17.2069ZM32.7184 15.9953C33.36 15.7377 33.9933 15.4838 34.6422 15.2234C34.5073 14.8671 34.3912 14.5602 34.2724 14.2468C33.5972 14.5233 32.9565 14.786 32.2974 15.0561C32.4425 15.3805 32.5779 15.6824 32.7184 15.9953ZM34.8417 15.6529C34.1756 15.9465 33.5364 16.2285 32.8966 16.511C33.0394 16.8447 33.1693 17.1475 33.3079 17.4701C33.9753 17.1816 34.6109 16.9069 35.2553 16.6285C35.1157 16.2999 34.984 15.9889 34.8417 15.6529ZM30.4896 3.75219C30.473 3.76418 30.456 3.77616 30.4394 3.78814C31.5204 5.59885 32.6023 7.40956 33.6883 9.22856C33.7095 9.20137 33.7312 9.17879 33.7459 9.15252C34.3281 8.13817 34.697 7.04778 34.8725 5.89518C35.0024 5.04398 34.9761 4.20291 34.5644 3.41346C34.5165 3.32314 34.5004 3.2176 34.4603 3.12266C34.3 2.73785 34.1365 2.35534 33.9711 1.96453C33.0431 2.35073 32.1445 2.72448 31.2053 3.11529C31.4071 3.29687 31.5646 3.43789 31.7359 3.59182C31.5093 3.88262 31.3076 4.1407 31.1026 4.40385C30.8884 4.17618 30.6886 3.96419 30.4896 3.75219ZM19.2384 8.08932C19.4143 8.53266 19.564 8.94144 19.7377 9.34055C19.9352 9.79495 20.1153 10.2609 20.4456 10.6452C20.9421 11.2227 21.539 11.6863 22.1903 12.0573C22.7706 12.3887 23.4081 12.6214 24.0257 12.8859C24.1994 12.9606 24.391 12.9905 24.612 13.0518C24.502 12.6255 24.4029 12.2592 24.3131 11.89C23.9456 10.3839 23.5826 8.87692 23.2119 7.3713C23.1672 7.18881 23.0875 7.0146 23.0239 6.83625C23.0051 6.84178 22.9862 6.84685 22.9673 6.85238V7.8082C22.6458 7.75935 22.3427 7.71326 22.0392 7.66764C22.0286 7.42062 22.0185 7.1948 22.007 6.94271C21.0724 7.33029 20.1692 7.70404 19.2384 8.08932ZM30.4914 15.1441C29.8268 15.3105 29.1811 15.4699 28.5385 15.6377C28.4787 15.6534 28.4188 15.7128 28.3829 15.7672C28.0793 16.2304 27.7744 16.6931 27.4875 17.1659C27.4377 17.2475 27.4313 17.3936 27.4686 17.4839C27.8136 18.3259 28.1719 19.1623 28.5233 19.9965C26.1462 22.3515 23.7917 24.6829 21.3948 27.0564H24.4158C25.7893 27.0564 27.1623 27.0517 28.5362 27.0614C28.7274 27.0628 28.8213 27.0024 28.8872 26.8305C28.989 26.5651 29.1046 26.3033 29.2262 26.0452C29.6743 25.0922 30.1266 24.141 30.578 23.1898C30.9414 22.4252 31.3099 21.6629 31.6664 20.8952C31.7 20.8223 31.6862 20.708 31.6549 20.6283C31.554 20.3702 31.431 20.1205 31.3237 19.8651C30.9479 18.9752 30.5739 18.0858 30.204 17.194C30.1234 17.0005 30.0645 16.7981 30.0014 16.6156C30.4679 16.4124 30.8967 16.2285 31.3214 16.0368C31.3753 16.0128 31.4504 15.9432 31.4471 15.8995C31.4269 15.5713 31.3891 15.2441 31.355 14.898C31.2436 14.9317 31.1639 14.9552 31.0791 14.9805C31.1128 15.1404 31.1404 15.2773 31.1712 15.428C30.975 15.4773 30.7945 15.5229 30.6038 15.5709C30.5633 15.4169 30.5296 15.2884 30.4914 15.1441ZM29.0889 27.5301H20.2696C20.3664 27.408 20.4304 27.3149 20.5064 27.2329C20.7496 26.9729 20.9928 26.713 21.2442 26.4614C21.3948 26.3107 21.5685 26.1821 21.7186 26.0314C22.1705 25.5784 22.6094 25.1134 23.0645 24.6645C23.4864 24.2484 23.929 23.8529 24.3504 23.4363C24.8175 22.9755 25.2638 22.4948 25.7303 22.0339C26.1909 21.5791 26.6672 21.1403 27.1342 20.6915C27.3728 20.4619 27.61 20.2306 27.838 19.99C27.879 19.9476 27.9011 19.8444 27.8794 19.7909C27.5575 18.9992 27.2226 18.2125 26.903 17.4198C26.8694 17.336 26.8731 17.2018 26.9177 17.1267C27.1457 16.7479 27.3926 16.3811 27.6478 15.9884C27.4156 15.8912 27.2038 15.7935 26.985 15.7124C26.3581 15.4805 25.8754 15.0547 25.4222 14.5828C25.3356 14.4915 25.2122 14.4169 25.092 14.38C24.1851 14.1012 23.2694 13.8491 22.4118 13.4265C21.2894 12.8735 20.2913 12.1587 19.5051 11.1812C19.2757 10.8969 19.1136 10.5485 18.9653 10.2106C18.583 9.34101 18.2265 8.45985 17.8608 7.5833C17.84 7.53353 17.8267 7.48007 17.8032 7.40909C19.2863 6.79201 20.7565 6.17999 22.27 5.55046C22.1115 5.37533 21.9899 5.22279 21.8494 5.08914C21.7219 4.96747 21.7495 4.87715 21.8881 4.8177C22.4408 4.58266 22.9995 4.36006 23.5527 4.12503C24.1501 3.8711 24.7428 3.60564 25.3398 3.35079C26.0537 3.04616 26.7694 2.74614 27.4856 2.44705C28.1641 2.1627 28.8444 1.8825 29.5233 1.60137C29.6112 1.56497 29.6992 1.52672 29.7909 1.50552C29.9461 1.46957 30.035 1.52395 30.029 1.7C30.0225 1.89724 30.0271 2.09403 30.0271 2.31985C31.5171 1.69908 32.98 1.08936 34.4663 0.469971C34.6482 0.876447 34.8219 1.24744 34.9803 1.62396C35.2576 2.28068 35.5487 2.93279 35.7909 3.60242C36.0083 4.20476 36.0313 4.84028 36.0033 5.47995C35.9623 6.40904 35.7126 7.28605 35.4248 8.16444C35.1433 9.02394 34.6814 9.78758 34.2774 10.5835C34.2341 10.6692 34.2042 10.7766 34.2102 10.8711C34.2655 11.6895 34.1245 12.4661 33.7459 13.197C33.5948 13.4896 33.4438 13.7818 33.2941 14.0731C33.6768 13.9293 34.0881 13.7749 34.5326 13.6081C35.3617 15.5935 36.1875 17.5715 36.9848 19.4803C37.2929 19.5057 37.5817 19.4554 37.7857 19.5642C38.0441 19.7029 38.4407 20.1048 38.4973 20.3785C38.5549 20.7633 38.4877 21.1625 38.2426 21.2703C37.9746 21.3878 38.1385 21.3205 37.8695 21.4348C36.9157 21.8408 35.9655 22.2538 35.0079 22.6506C34.0144 23.0626 33.0131 23.4548 32.0173 23.8631C31.5273 24.0645 31.0414 24.2774 30.5587 24.4963C30.4923 24.5267 30.4408 24.6161 30.4058 24.6894C30.0691 25.4157 29.7388 26.1439 29.4044 26.8711C29.3054 27.0863 29.1999 27.2988 29.0889 27.5301Z" fill="#91CDD7"/>
<path fill-rule="evenodd" clip-rule="evenodd" d="M33.3821 17.2576C33.2784 17.0129 33.1895 16.8041 33.0932 16.5769C33.2116 16.5364 33.3144 16.5009 33.4642 16.4502C33.5365 16.6567 33.607 16.859 33.6872 17.0866C33.595 17.1387 33.502 17.1903 33.3821 17.2576Z" fill="#91CDD7"/>
<path fill-rule="evenodd" clip-rule="evenodd" d="M33.3821 17.2576C33.2784 17.0129 33.1895 16.8041 33.0932 16.5769C33.2116 16.5364 33.3144 16.5009 33.4642 16.4502C33.5365 16.6567 33.607 16.859 33.6872 17.0866C33.595 17.1387 33.502 17.1903 33.3821 17.2576Z" fill="#91CDD7"/>
<path fill-rule="evenodd" clip-rule="evenodd" d="M33.1167 15.6312C33.0024 15.6782 32.9015 15.7192 32.7803 15.769C32.6983 15.5611 32.619 15.3602 32.5314 15.1385C32.6319 15.0837 32.7236 15.0339 32.8379 14.9722C32.9361 15.204 33.0241 15.4127 33.1167 15.6312Z" fill="#91CDD7"/>
<path fill-rule="evenodd" clip-rule="evenodd" d="M33.1167 15.6312C33.0024 15.6782 32.9015 15.7192 32.7803 15.769C32.6983 15.5611 32.619 15.3602 32.5314 15.1385C32.6319 15.0837 32.7236 15.0339 32.8379 14.9722C32.9361 15.204 33.0241 15.4127 33.1167 15.6312Z" fill="#91CDD7"/>
<path fill-rule="evenodd" clip-rule="evenodd" d="M33.8829 18.0714C33.9912 18.0235 34.0829 17.9834 34.1857 17.9377C34.2691 18.1152 34.3456 18.2765 34.4346 18.4659C34.3369 18.5129 34.2447 18.5571 34.1387 18.6078C34.0484 18.4193 33.9691 18.2525 33.8829 18.0714Z" fill="#91CDD7"/>
<path fill-rule="evenodd" clip-rule="evenodd" d="M33.8829 18.0714C33.9912 18.0235 34.0829 17.9834 34.1857 17.9377C34.2691 18.1152 34.3456 18.2765 34.4346 18.4659C34.3369 18.5129 34.2447 18.5571 34.1387 18.6078C34.0484 18.4193 33.9691 18.2525 33.8829 18.0714Z" fill="#91CDD7"/>
<path fill-rule="evenodd" clip-rule="evenodd" d="M34.7632 19.3247C35.0328 19.1731 35.0646 19.2007 35.1978 19.6938C35.1232 19.7229 35.0462 19.7533 34.9573 19.7883C34.8877 19.6219 34.825 19.4717 34.7632 19.3247Z" fill="#91CDD7"/>
<path fill-rule="evenodd" clip-rule="evenodd" d="M34.7632 19.3247C35.0328 19.1731 35.0646 19.2007 35.1978 19.6938C35.1232 19.7229 35.0462 19.7533 34.9573 19.7883C34.8877 19.6219 34.825 19.4717 34.7632 19.3247Z" fill="#91CDD7"/>
</svg>
