<svg width="162" height="31" viewBox="0 0 162 31" fill="none" xmlns="http://www.w3.org/2000/svg">
<path d="M103.919 0.805115H161.784V30.6958H93.9189L103.919 0.805115Z" fill="#91CDD7"/>
<path d="M94.9189 0.805115H96.7845L86.7845 30.6958H84.9189L94.9189 0.805115Z" fill="#6FB48B" fill-opacity="0.5"/>
<path d="M97.9189 0.805115H99.7845L89.7845 30.6958H87.9189L97.9189 0.805115Z" fill="#6FB48B" fill-opacity="0.6"/>
<path d="M100.919 0.805115H102.784L92.7845 30.6958H90.9189L100.919 0.805115Z" fill="#6FB48B" fill-opacity="0.7"/>
<path d="M92.9189 0.805115H93.7845L83.7845 30.6958H82.9189L92.9189 0.805115Z" fill="#6FB48B" fill-opacity="0.4"/>
<path d="M10.9189 0.805115H91.7845L81.7845 30.6958H0.918945L10.9189 0.805115Z" fill="#6FB48B" fill-opacity="0.2"/>
<path d="M25.4307 12.6846H26.377C26.6121 12.6846 26.7791 12.6969 26.8781 12.7217C26.9894 12.734 27.0945 12.7959 27.1935 12.9072C27.2925 13.0186 27.342 13.1856 27.342 13.4083C27.342 13.6186 27.3172 13.8536 27.2677 14.1134C27.2306 14.3608 27.1378 14.5773 26.9894 14.7629C26.8409 14.9484 26.6987 15.0536 26.5626 15.0783C26.4265 15.1031 26.2224 15.1154 25.9502 15.1154H25.0224L24.6884 17.1566H25.6348C25.8698 17.1566 26.0368 17.169 26.1358 17.1937C26.2471 17.2061 26.3523 17.268 26.4513 17.3793C26.5502 17.4906 26.5997 17.6576 26.5997 17.8803C26.5997 18.0906 26.5812 18.3009 26.544 18.5112C26.5069 18.7215 26.4451 18.9133 26.3585 19.0865C26.2843 19.2597 26.1791 19.3834 26.043 19.4576C25.8451 19.5566 25.5667 19.6061 25.208 19.6061H24.2802C24.1565 20.373 24.0822 20.8493 24.0575 21.0349L24.0204 21.239C23.9709 21.5112 23.9276 21.7029 23.8905 21.8143C23.8658 21.9256 23.8039 22.0617 23.7049 22.2225C23.507 22.507 23.0493 22.6493 22.3318 22.6493C21.6143 22.6493 21.2555 22.4204 21.2555 21.9627C21.2555 21.9503 21.305 21.6287 21.404 20.9978L21.6266 19.6061H18.8617C18.738 20.373 18.6638 20.8493 18.6391 21.0349L18.602 21.239C18.5525 21.5112 18.5092 21.7029 18.4721 21.8143C18.4473 21.9256 18.3855 22.0617 18.2865 22.2225C18.0886 22.507 17.6308 22.6493 16.9133 22.6493C16.1958 22.6493 15.8371 22.4204 15.8371 21.9627C15.8371 21.9503 15.8866 21.6287 15.9855 20.9978L16.2082 19.6061H14.9835C14.4639 19.6061 14.1546 19.4947 14.0557 19.272C14.0186 19.1731 14 19.0308 14 18.8453C14 18.6473 14.0186 18.4246 14.0557 18.1772C14.1052 17.9174 14.2041 17.6948 14.3526 17.5092C14.5134 17.3236 14.6618 17.2185 14.7979 17.1937C14.934 17.169 15.1381 17.1566 15.4103 17.1566H16.6164L16.9504 15.1154H15.7257C15.1938 15.1154 14.8845 15.0103 14.7979 14.8C14.7608 14.6886 14.7423 14.5402 14.7423 14.3546C14.7423 14.1691 14.7608 13.9526 14.7979 13.7052C14.8474 13.4454 14.9464 13.2227 15.0948 13.0371C15.2556 12.8516 15.4041 12.7464 15.5402 12.7217C15.6763 12.6969 15.8804 12.6846 16.1525 12.6846H17.3587L17.6741 10.7733C17.6865 10.699 17.6989 10.5815 17.7113 10.4207C17.736 10.2475 17.7546 10.13 17.7669 10.0681C17.7917 9.99391 17.8226 9.89494 17.8597 9.77123C17.8968 9.64752 17.9463 9.56093 18.0082 9.51144C18.0824 9.46196 18.1752 9.40011 18.2865 9.32588C18.4597 9.21454 18.7751 9.15887 19.2329 9.15887C19.6906 9.15887 20.006 9.22691 20.1792 9.36299C20.3648 9.4867 20.4576 9.67845 20.4576 9.93824C20.4576 9.97535 20.4267 10.1918 20.3648 10.5877L20.0122 12.6846H22.7771L23.0926 10.7733C23.1049 10.699 23.1173 10.5815 23.1297 10.4207C23.1544 10.2475 23.173 10.13 23.1854 10.0681C23.2101 9.99391 23.241 9.89494 23.2781 9.77123C23.3153 9.64752 23.3647 9.56093 23.4266 9.51144C23.5008 9.46196 23.5936 9.40011 23.7049 9.32588C23.8781 9.21454 24.1936 9.15887 24.6513 9.15887C25.109 9.15887 25.4245 9.22691 25.5977 9.36299C25.7832 9.4867 25.876 9.67845 25.876 9.93824C25.876 9.97535 25.8451 10.1918 25.7832 10.5877L25.4307 12.6846ZM22.0349 17.1566L22.3689 15.1154H19.6226L19.27 17.1566H22.0349Z" fill="white" fill-opacity="0.6"/>
<path d="M30.9655 13.4141H33.6898C33.8255 13.4141 33.9257 13.42 33.9906 13.4318C34.0613 13.4377 34.1409 13.4642 34.2294 13.5114C34.3886 13.594 34.4682 13.8239 34.4682 14.2013C34.4682 14.6141 34.3591 14.8559 34.1409 14.9266C34.0407 14.962 33.8874 14.9797 33.681 14.9797H30.1783C29.7655 14.9797 29.5237 14.8677 29.453 14.6436C29.4176 14.5492 29.3999 14.3989 29.3999 14.1925V9.27454C29.3999 8.9738 29.4559 8.77036 29.568 8.66422C29.68 8.55218 29.8923 8.49616 30.2048 8.49616H33.6898C33.8255 8.49616 33.9257 8.50205 33.9906 8.51385C34.0613 8.51975 34.1409 8.54628 34.2294 8.59346C34.3886 8.67601 34.4682 8.90599 34.4682 9.28338C34.4682 9.69616 34.3591 9.93793 34.1409 10.0087C34.0407 10.0441 33.8874 10.0618 33.681 10.0618H30.9655V10.9551H32.7169C32.8525 10.9551 32.9527 10.961 33.0176 10.9728C33.0884 10.9787 33.168 11.0053 33.2564 11.0524C33.4156 11.135 33.4952 11.365 33.4952 11.7424C33.4952 12.1551 33.3832 12.3969 33.1591 12.4677C33.0589 12.503 32.9056 12.5207 32.6992 12.5207H30.9655V13.4141Z" fill="white" fill-opacity="0.6"/>
<path d="M35.1378 14.0687C34.9844 13.88 34.9078 13.7119 34.9078 13.5645C34.9078 13.4112 35.0346 13.2107 35.2881 12.963C35.4356 12.8215 35.5918 12.7507 35.7569 12.7507C35.922 12.7507 36.152 12.8981 36.4469 13.193C36.5294 13.2932 36.6474 13.3905 36.8007 13.4849C36.954 13.5733 37.0955 13.6175 37.2252 13.6175C37.7736 13.6175 38.0478 13.3935 38.0478 12.9453C38.0478 12.8097 37.9712 12.6976 37.8179 12.6092C37.6705 12.5148 37.4847 12.447 37.2606 12.4058C37.0365 12.3645 36.7948 12.2996 36.5353 12.2112C36.2759 12.1168 36.0341 12.0077 35.81 11.8839C35.5859 11.76 35.3972 11.5655 35.2439 11.3001C35.0965 11.0288 35.0228 10.7045 35.0228 10.3271C35.0228 9.8082 35.2144 9.35709 35.5977 8.9738C35.9869 8.58461 36.5147 8.39001 37.181 8.39001C37.5348 8.39001 37.8562 8.43719 38.1451 8.53154C38.44 8.61999 38.6434 8.71139 38.7555 8.80574L38.9766 8.9738C39.1594 9.14481 39.2508 9.28928 39.2508 9.40722C39.2508 9.52515 39.18 9.68732 39.0385 9.8937C38.838 10.1885 38.6316 10.336 38.4193 10.336C38.2955 10.336 38.1422 10.277 37.9594 10.1591C37.9417 10.1473 37.9063 10.1178 37.8533 10.0706C37.8061 10.0234 37.7619 9.98511 37.7206 9.95562C37.5967 9.87896 37.4375 9.84063 37.2429 9.84063C37.0542 9.84063 36.895 9.88781 36.7653 9.98216C36.6415 10.0706 36.5795 10.1974 36.5795 10.3625C36.5795 10.5217 36.6532 10.6514 36.8007 10.7517C36.954 10.8519 37.1427 10.9198 37.3668 10.9551C37.5908 10.9905 37.8356 11.0465 38.1009 11.1232C38.3663 11.194 38.611 11.2824 38.8351 11.3886C39.0592 11.4947 39.2449 11.6804 39.3923 11.9458C39.5456 12.2053 39.6223 12.5266 39.6223 12.9099C39.6223 13.2932 39.5456 13.6323 39.3923 13.9271C39.239 14.2161 39.0385 14.4402 38.7908 14.5994C38.3132 14.9119 37.8031 15.0682 37.2606 15.0682C36.9835 15.0682 36.7211 15.0357 36.4734 14.9709C36.2257 14.9001 36.0252 14.8146 35.8719 14.7144C35.5594 14.5257 35.3412 14.3429 35.2174 14.166L35.1378 14.0687Z" fill="white" fill-opacity="0.6"/>
<path d="M44.2484 13.2814L44.4076 13.1664C44.6081 13.0485 44.7497 12.9895 44.8322 12.9895C45.015 12.9895 45.2126 13.1546 45.4248 13.4849C45.5546 13.6913 45.6194 13.8564 45.6194 13.9802C45.6194 14.104 45.5782 14.2072 45.4956 14.2898C45.4189 14.3723 45.3275 14.4461 45.2214 14.5109C45.1153 14.5758 45.0121 14.6377 44.9118 14.6967C44.8175 14.7556 44.6199 14.8323 44.3192 14.9266C44.0185 15.021 43.7266 15.0682 43.4435 15.0682C43.1664 15.0682 42.8833 15.0328 42.5944 14.962C42.3113 14.8854 42.0165 14.7615 41.7098 14.5905C41.4091 14.4136 41.1379 14.2013 40.8961 13.9537C40.6543 13.7001 40.4538 13.3787 40.2946 12.9895C40.1413 12.5945 40.0646 12.1669 40.0646 11.707C40.0646 11.247 40.1413 10.8313 40.2946 10.4598C40.4479 10.0824 40.6425 9.77282 40.8784 9.53105C41.1202 9.28338 41.3944 9.07699 41.701 8.91188C42.2789 8.59346 42.8597 8.43424 43.4435 8.43424C43.7207 8.43424 44.0008 8.47847 44.2838 8.56692C44.5728 8.64948 44.7909 8.73498 44.9384 8.82343L45.1506 8.94726C45.2568 9.01213 45.3393 9.0652 45.3983 9.10648C45.5516 9.23031 45.6283 9.37184 45.6283 9.53105C45.6283 9.68437 45.5664 9.84653 45.4425 10.0175C45.2126 10.336 45.0062 10.4952 44.8234 10.4952C44.7172 10.4952 44.5669 10.4303 44.3723 10.3006C44.1246 10.1001 43.7944 9.99985 43.3816 9.99985C42.9983 9.99985 42.6209 10.1325 42.2494 10.3979C42.0725 10.5276 41.9251 10.7104 41.8071 10.9463C41.6892 11.1822 41.6302 11.4505 41.6302 11.7512C41.6302 12.046 41.6892 12.3114 41.8071 12.5473C41.9251 12.7831 42.0754 12.9689 42.2583 13.1045C42.618 13.364 42.9924 13.4937 43.3816 13.4937C43.5644 13.4937 43.7354 13.4701 43.8946 13.423C44.0597 13.3758 44.1777 13.3286 44.2484 13.2814Z" fill="white" fill-opacity="0.6"/>
<path d="M49.2434 8.41655C50.1162 8.41655 50.8739 8.73203 51.5167 9.36299C52.1594 9.99395 52.4808 10.7782 52.4808 11.7158C52.4808 12.6475 52.1742 13.4436 51.5609 14.104C50.9476 14.7586 50.1928 15.0859 49.2965 15.0859C48.4002 15.0859 47.6365 14.7615 47.0056 14.1129C46.3805 13.4642 46.068 12.6917 46.068 11.7954C46.068 11.306 46.1564 10.849 46.3333 10.4244C46.5103 9.99395 46.7461 9.63425 47.041 9.3453C47.3358 9.05636 47.6749 8.82933 48.0582 8.66422C48.4415 8.49911 48.8366 8.41655 49.2434 8.41655ZM47.6336 11.7512C47.6336 12.276 47.8017 12.7035 48.1378 13.0338C48.4798 13.3581 48.8601 13.5203 49.2788 13.5203C49.6975 13.5203 50.0749 13.361 50.411 13.0426C50.7471 12.7242 50.9152 12.2967 50.9152 11.7601C50.9152 11.2234 50.7442 10.793 50.4022 10.4686C50.066 10.1443 49.6886 9.98216 49.27 9.98216C48.8513 9.98216 48.4739 10.1473 48.1378 10.4775C47.8017 10.8018 47.6336 11.2264 47.6336 11.7512Z" fill="white" fill-opacity="0.6"/>
<path d="M58.0214 13.8829C58.1098 14.0952 58.154 14.2485 58.154 14.3429C58.154 14.5669 57.9712 14.7556 57.6056 14.909C57.4169 14.9915 57.2636 15.0328 57.1457 15.0328C57.0336 15.0328 56.9393 15.0063 56.8626 14.9532C56.7919 14.8942 56.7388 14.8352 56.7034 14.7763C56.6445 14.6642 56.4145 14.1306 56.0135 13.1753L55.7393 13.193H54.6248V14.1925C54.6248 14.3281 54.6189 14.4313 54.6071 14.5021C54.6012 14.5669 54.5747 14.6436 54.5275 14.732C54.4449 14.8913 54.215 14.9709 53.8376 14.9709C53.4248 14.9709 53.183 14.8618 53.1123 14.6436C53.0769 14.5434 53.0592 14.39 53.0592 14.1836V9.27454C53.0592 9.13891 53.0621 9.03867 53.068 8.9738C53.0798 8.90304 53.1093 8.82343 53.1565 8.73498C53.239 8.57576 53.469 8.49616 53.8464 8.49616H55.757C56.2759 8.49616 56.7801 8.68486 57.2695 9.06225C57.5054 9.24505 57.7 9.49272 57.8533 9.80525C58.0066 10.1178 58.0833 10.4657 58.0833 10.849C58.0833 11.5153 57.8621 12.0637 57.4199 12.4942C57.5496 12.8067 57.7501 13.2696 58.0214 13.8829ZM54.6248 11.6274H55.757C55.928 11.6274 56.099 11.5625 56.27 11.4328C56.441 11.303 56.5265 11.1085 56.5265 10.849C56.5265 10.5895 56.441 10.3949 56.27 10.2652C56.099 10.1296 55.9221 10.0618 55.7393 10.0618H54.6248V11.6274Z" fill="white" fill-opacity="0.6"/>
<path d="M60.2049 13.4141H62.9292C63.0648 13.4141 63.1651 13.42 63.23 13.4318C63.3007 13.4377 63.3803 13.4642 63.4688 13.5114C63.628 13.594 63.7076 13.8239 63.7076 14.2013C63.7076 14.6141 63.5985 14.8559 63.3803 14.9266C63.2801 14.962 63.1268 14.9797 62.9204 14.9797H59.4177C59.0049 14.9797 58.7631 14.8677 58.6924 14.6436C58.657 14.5492 58.6393 14.3989 58.6393 14.1925V9.27454C58.6393 8.9738 58.6953 8.77036 58.8073 8.66422C58.9194 8.55218 59.1317 8.49616 59.4442 8.49616H62.9292C63.0648 8.49616 63.1651 8.50205 63.23 8.51385C63.3007 8.51975 63.3803 8.54628 63.4688 8.59346C63.628 8.67601 63.7076 8.90599 63.7076 9.28338C63.7076 9.69616 63.5985 9.93793 63.3803 10.0087C63.2801 10.0441 63.1268 10.0618 62.9204 10.0618H60.2049V10.9551H61.9562C62.0919 10.9551 62.1921 10.961 62.257 10.9728C62.3277 10.9787 62.4074 11.0053 62.4958 11.0524C62.655 11.135 62.7346 11.365 62.7346 11.7424C62.7346 12.1551 62.6226 12.3969 62.3985 12.4677C62.2983 12.503 62.1449 12.5207 61.9386 12.5207H60.2049V13.4141Z" fill="white" fill-opacity="0.6"/>
<path d="M33.5837 16.6845C33.6427 16.5784 33.7282 16.5076 33.8402 16.4722C33.9523 16.4369 34.0908 16.4192 34.2559 16.4192C34.4269 16.4192 34.5626 16.4339 34.6628 16.4634C34.769 16.4929 34.8456 16.5283 34.8928 16.5695C34.9459 16.6108 34.9842 16.6727 35.0078 16.7553C35.0432 16.8496 35.0609 17 35.0609 17.2064V22.1155C35.0609 22.257 35.055 22.3602 35.0432 22.4251C35.0373 22.4899 35.0107 22.5666 34.9636 22.6551C34.881 22.8143 34.651 22.8939 34.2736 22.8939C34.0437 22.8939 33.8844 22.8762 33.796 22.8408C33.7075 22.8054 33.6338 22.7494 33.5749 22.6727C32.2481 20.9037 31.3753 19.7479 30.9567 19.2054V22.1155C30.9567 22.257 30.9508 22.3602 30.939 22.4251C30.9331 22.4899 30.9065 22.5666 30.8594 22.6551C30.7768 22.8143 30.5468 22.8939 30.1694 22.8939C29.8038 22.8939 29.5798 22.8143 29.4972 22.6551C29.45 22.5666 29.4205 22.487 29.4087 22.4162C29.4029 22.3455 29.3999 22.2423 29.3999 22.1066V17.171C29.3999 16.9469 29.4264 16.7848 29.4795 16.6845C29.5385 16.5784 29.624 16.5076 29.736 16.4722C29.8481 16.4369 29.9925 16.4192 30.1694 16.4192C30.3463 16.4192 30.4849 16.4369 30.5852 16.4722C30.6913 16.5017 30.765 16.5371 30.8063 16.5784C30.8299 16.5961 30.8977 16.6727 31.0097 16.8084C32.254 18.5007 33.0854 19.6182 33.5041 20.1607V17.171C33.5041 16.9469 33.5306 16.7848 33.5837 16.6845Z" fill="white" fill-opacity="0.6"/>
<path d="M37.3317 21.3283H40.056C40.1916 21.3283 40.2919 21.3342 40.3567 21.346C40.4275 21.3519 40.5071 21.3784 40.5956 21.4256C40.7548 21.5081 40.8344 21.7381 40.8344 22.1155C40.8344 22.5283 40.7253 22.77 40.5071 22.8408C40.4069 22.8762 40.2535 22.8939 40.0471 22.8939H36.5444C36.1317 22.8939 35.8899 22.7818 35.8191 22.5578C35.7837 22.4634 35.7661 22.313 35.7661 22.1066V17.1887C35.7661 16.888 35.8221 16.6845 35.9341 16.5784C36.0462 16.4663 36.2584 16.4103 36.571 16.4103H40.056C40.1916 16.4103 40.2919 16.4162 40.3567 16.428C40.4275 16.4339 40.5071 16.4604 40.5956 16.5076C40.7548 16.5902 40.8344 16.8201 40.8344 17.1975C40.8344 17.6103 40.7253 17.8521 40.5071 17.9229C40.4069 17.9582 40.2535 17.9759 40.0471 17.9759H37.3317V18.8693H39.083C39.2186 18.8693 39.3189 18.8752 39.3838 18.887C39.4545 18.8929 39.5341 18.9194 39.6226 18.9666C39.7818 19.0491 39.8614 19.2791 39.8614 19.6565C39.8614 20.0693 39.7494 20.3111 39.5253 20.3818C39.425 20.4172 39.2717 20.4349 39.0653 20.4349H37.3317V21.3283Z" fill="white" fill-opacity="0.6"/>
<path d="M49.1639 16.4457C49.559 16.5872 49.7565 16.7759 49.7565 17.0118C49.7565 17.0885 49.7211 17.2329 49.6504 17.4452L47.9521 22.3543C47.9403 22.3956 47.9197 22.4457 47.8902 22.5047C47.8607 22.5637 47.7811 22.6433 47.6514 22.7435C47.5275 22.8379 47.3772 22.885 47.2003 22.885C47.0292 22.885 46.8789 22.8379 46.7491 22.7435C46.6253 22.6433 46.5428 22.546 46.5015 22.4516L45.4666 19.4C44.812 21.3342 44.4789 22.3189 44.4671 22.3543C44.4553 22.3897 44.4287 22.4398 44.3875 22.5047C44.3462 22.5695 44.299 22.6285 44.2459 22.6816C44.1103 22.8172 43.9482 22.885 43.7595 22.885C43.5708 22.885 43.4145 22.8408 43.2907 22.7524C43.1727 22.6639 43.0931 22.5754 43.0518 22.487L42.9899 22.3543L41.2828 17.4452C41.2179 17.2506 41.1855 17.1061 41.1855 17.0118C41.1855 16.7759 41.383 16.5902 41.7781 16.4545C41.9491 16.3956 42.1024 16.3661 42.2381 16.3661C42.3796 16.3661 42.4857 16.4133 42.5565 16.5076C42.6332 16.602 42.701 16.7464 42.7599 16.941L43.7329 19.8953L44.697 16.9853C44.7796 16.7376 44.93 16.5666 45.1482 16.4722C45.2425 16.431 45.3634 16.4103 45.5108 16.4103C45.6641 16.4103 45.8057 16.4604 45.9354 16.5607C46.0651 16.655 46.1477 16.7494 46.183 16.8437L47.2003 19.913L48.1732 16.941C48.2204 16.8054 48.2587 16.7052 48.2882 16.6403C48.3177 16.5754 48.3708 16.5135 48.4474 16.4545C48.53 16.3897 48.6302 16.3572 48.7482 16.3572C48.8661 16.3572 49.0047 16.3867 49.1639 16.4457Z" fill="white" fill-opacity="0.6"/>
<path d="M50.3405 21.9828C50.1872 21.7941 50.1105 21.6261 50.1105 21.4786C50.1105 21.3253 50.2373 21.1248 50.4909 20.8772C50.6383 20.7356 50.7946 20.6649 50.9597 20.6649C51.1248 20.6649 51.3548 20.8123 51.6496 21.1071C51.7322 21.2074 51.8501 21.3047 52.0034 21.399C52.1567 21.4875 52.2983 21.5317 52.428 21.5317C52.9764 21.5317 53.2506 21.3076 53.2506 20.8595C53.2506 20.7238 53.1739 20.6118 53.0206 20.5234C52.8732 20.429 52.6875 20.3612 52.4634 20.3199C52.2393 20.2786 51.9975 20.2138 51.7381 20.1253C51.4786 20.031 51.2368 19.9219 51.0128 19.798C50.7887 19.6742 50.6 19.4796 50.4467 19.2143C50.2992 18.943 50.2255 18.6187 50.2255 18.2413C50.2255 17.7224 50.4172 17.2713 50.8005 16.888C51.1897 16.4988 51.7174 16.3042 52.3838 16.3042C52.7376 16.3042 53.059 16.3513 53.3479 16.4457C53.6427 16.5342 53.8462 16.6256 53.9582 16.7199L54.1793 16.888C54.3622 17.059 54.4536 17.2034 54.4536 17.3214C54.4536 17.4393 54.3828 17.6015 54.2413 17.8079C54.0408 18.1027 53.8344 18.2501 53.6221 18.2501C53.4983 18.2501 53.3449 18.1912 53.1621 18.0732C53.1445 18.0614 53.1091 18.0319 53.056 17.9848C53.0088 17.9376 52.9646 17.8993 52.9233 17.8698C52.7995 17.7931 52.6403 17.7548 52.4457 17.7548C52.257 17.7548 52.0978 17.802 51.968 17.8963C51.8442 17.9848 51.7823 18.1116 51.7823 18.2767C51.7823 18.4359 51.856 18.5656 52.0034 18.6659C52.1567 18.7661 52.3454 18.8339 52.5695 18.8693C52.7936 18.9047 53.0383 18.9607 53.3037 19.0374C53.569 19.1081 53.8137 19.1966 54.0378 19.3027C54.2619 19.4089 54.4477 19.5946 54.5951 19.86C54.7484 20.1194 54.8251 20.4408 54.8251 20.8241C54.8251 21.2074 54.7484 21.5465 54.5951 21.8413C54.4418 22.1302 54.2413 22.3543 53.9936 22.5135C53.516 22.8261 53.0059 22.9823 52.4634 22.9823C52.1862 22.9823 51.9238 22.9499 51.6761 22.885C51.4285 22.8143 51.228 22.7288 51.0747 22.6285C50.7621 22.4398 50.544 22.257 50.4201 22.0801L50.3405 21.9828Z" fill="white" fill-opacity="0.6"/>
<path d="M56.7711 21.4344C56.8713 21.5347 56.9214 21.741 56.9214 22.0536V22.089C56.9214 22.2305 56.9155 22.3366 56.9038 22.4074C56.8979 22.4723 56.8684 22.5519 56.8153 22.6462C56.7268 22.8172 56.5028 22.9027 56.1431 22.9027C55.7893 22.9027 55.5534 22.8467 55.4354 22.7347C55.3234 22.6226 55.2674 22.4103 55.2674 22.0978V22.0624C55.2674 21.9268 55.2703 21.8236 55.2762 21.7528C55.288 21.6821 55.3175 21.6025 55.3647 21.514C55.4531 21.3371 55.6743 21.2487 56.0281 21.2487C56.3878 21.2487 56.6354 21.3106 56.7711 21.4344Z" fill="white" fill-opacity="0.6"/>
<path d="M61.5502 21.1956L61.7094 21.0806C61.9099 20.9627 62.0514 20.9037 62.134 20.9037C62.3168 20.9037 62.5143 21.0688 62.7266 21.399C62.8563 21.6054 62.9212 21.7705 62.9212 21.8944C62.9212 22.0182 62.8799 22.1214 62.7974 22.2039C62.7207 22.2865 62.6293 22.3602 62.5232 22.4251C62.417 22.4899 62.3138 22.5519 62.2136 22.6108C62.1192 22.6698 61.9217 22.7465 61.621 22.8408C61.3202 22.9352 61.0283 22.9823 60.7453 22.9823C60.4681 22.9823 60.1851 22.9469 59.8961 22.8762C59.6131 22.7995 59.3182 22.6757 59.0116 22.5047C58.7109 22.3278 58.4396 22.1155 58.1979 21.8678C57.9561 21.6143 57.7556 21.2929 57.5964 20.9037C57.4431 20.5086 57.3664 20.0811 57.3664 19.6211C57.3664 19.1612 57.4431 18.7455 57.5964 18.374C57.7497 17.9966 57.9443 17.687 58.1802 17.4452C58.4219 17.1975 58.6961 16.9912 59.0028 16.826C59.5807 16.5076 60.1615 16.3484 60.7453 16.3484C61.0224 16.3484 61.3025 16.3926 61.5856 16.4811C61.8745 16.5636 62.0927 16.6491 62.2401 16.7376L62.4524 16.8614C62.5586 16.9263 62.6411 16.9794 62.7001 17.0206C62.8534 17.1445 62.9301 17.286 62.9301 17.4452C62.9301 17.5985 62.8681 17.7607 62.7443 17.9317C62.5143 18.2501 62.3079 18.4093 62.1251 18.4093C62.019 18.4093 61.8686 18.3445 61.674 18.2147C61.4264 18.0143 61.0961 17.914 60.6834 17.914C60.3001 17.914 59.9227 18.0467 59.5512 18.312C59.3743 18.4418 59.2268 18.6246 59.1089 18.8604C58.991 19.0963 58.932 19.3646 58.932 19.6654C58.932 19.9602 58.991 20.2256 59.1089 20.4614C59.2268 20.6973 59.3772 20.8831 59.56 21.0187C59.9197 21.2781 60.2942 21.4079 60.6834 21.4079C60.8662 21.4079 61.0372 21.3843 61.1964 21.3371C61.3615 21.2899 61.4794 21.2428 61.5502 21.1956Z" fill="white" fill-opacity="0.6"/>
<path d="M66.5452 16.3307C67.4179 16.3307 68.1757 16.6462 68.8184 17.2771C69.4612 17.9081 69.7826 18.6924 69.7826 19.63C69.7826 20.5617 69.4759 21.3578 68.8626 22.0182C68.2494 22.6727 67.4946 23 66.5983 23C65.702 23 64.9383 22.6757 64.3074 22.027C63.6823 21.3784 63.3698 20.6059 63.3698 19.7096C63.3698 19.2202 63.4582 18.7631 63.6351 18.3386C63.812 17.9081 64.0479 17.5484 64.3427 17.2595C64.6376 16.9705 64.9766 16.7435 65.3599 16.5784C65.7432 16.4133 66.1383 16.3307 66.5452 16.3307ZM64.9354 19.6654C64.9354 20.1902 65.1034 20.6177 65.4395 20.9479C65.7816 21.2722 66.1619 21.4344 66.5806 21.4344C66.9993 21.4344 67.3766 21.2752 67.7128 20.9568C68.0489 20.6383 68.2169 20.2108 68.2169 19.6742C68.2169 19.1376 68.0459 18.7071 67.7039 18.3828C67.3678 18.0585 66.9904 17.8963 66.5717 17.8963C66.1531 17.8963 65.7757 18.0614 65.4395 18.3916C65.1034 18.716 64.9354 19.1405 64.9354 19.6654Z" fill="white" fill-opacity="0.6"/>
<path d="M77.2514 16.658C77.2986 16.7464 77.3251 16.826 77.331 16.8968C77.3428 16.9676 77.3487 17.0708 77.3487 17.2064V22.1155C77.3487 22.5224 77.2366 22.7612 77.0126 22.832C76.9005 22.8673 76.759 22.885 76.588 22.885C76.417 22.885 76.2814 22.8703 76.1811 22.8408C76.0809 22.8113 76.0042 22.7759 75.9511 22.7347C75.8981 22.6934 75.8568 22.6344 75.8273 22.5578C75.7978 22.4575 75.7831 22.3042 75.7831 22.0978V19.1346C75.6357 19.3175 75.4204 19.6093 75.1374 20.0103C74.8543 20.4054 74.6745 20.6531 74.5978 20.7533C74.5212 20.8536 74.4681 20.9243 74.4386 20.9656C74.4091 21.001 74.3354 21.0541 74.2175 21.1248C74.1054 21.1897 73.9816 21.2221 73.846 21.2221C73.7162 21.2221 73.5954 21.1926 73.4833 21.1337C73.3772 21.0688 73.3005 21.0069 73.2533 20.9479L73.1826 20.8506C73.0646 20.7032 72.8317 20.3907 72.4838 19.913C72.1359 19.4295 71.9472 19.17 71.9177 19.1346V22.1155C71.9177 22.2511 71.9118 22.3543 71.9 22.4251C71.8941 22.4899 71.8676 22.5637 71.8204 22.6462C71.732 22.8054 71.502 22.885 71.1305 22.885C70.7708 22.885 70.5467 22.8054 70.4582 22.6462C70.4111 22.5637 70.3816 22.487 70.3698 22.4162C70.3639 22.3455 70.3609 22.2393 70.3609 22.0978V17.1887C70.3609 17.0531 70.3639 16.9528 70.3698 16.888C70.3816 16.8172 70.4111 16.7376 70.4582 16.6491C70.5467 16.4958 70.7767 16.4192 71.1482 16.4192C71.3074 16.4192 71.443 16.4398 71.5551 16.4811C71.673 16.5165 71.7496 16.5548 71.785 16.5961L71.8381 16.6491L73.846 19.285C74.8484 17.9582 75.5177 17.0826 75.8538 16.658C75.9541 16.4988 76.19 16.4192 76.5615 16.4192C76.9389 16.4192 77.1688 16.4988 77.2514 16.658Z" fill="white" fill-opacity="0.6"/>
</svg>
